<?xml version="1.0" encoding="utf-8"?>
<!-- Generator: Adobe Illustrator 24.1.3, SVG Export Plug-In . SVG Version: 6.00 Build 0)  -->
<svg version="1.1" id="Layer_1" xmlns="http://www.w3.org/2000/svg" xmlns:xlink="http://www.w3.org/1999/xlink" x="0px" y="0px"
	 viewBox="0 0 722.4 830.2" style="enable-background:new 0 0 722.4 830.2;" xml:space="preserve">
<style type="text/css">
	.st0{fill:#FFFFFF;}
	.st1{fill:none;stroke:#FFFFFF;stroke-width:6;stroke-miterlimit:10;}
	.st2{fill:none;stroke:#FFFFFF;stroke-width:5;stroke-miterlimit:10;}
	.st3{fill:none;stroke:#FFFFFF;stroke-width:3;stroke-miterlimit:10;}
	.st4{stroke:#FFFFFF;stroke-width:6;stroke-miterlimit:10;}
</style>
<g>
	<path d="M567.8,617.3c-10.2,2.4-20.5,4.7-30.7,7.3c-32.1,8.2-64.7,14.4-97.4,19.9c-22.3,3.8-44.6,8-66.9,11.5
		c-28.3,4.4-56.6,8.6-85.1,11.9c-25.7,3-51.6,4.5-77.4,5.9c-34.2,1.9-68.4,4.2-102.7,5.4c-17.2,0.6-34.3,0.5-51.4-0.4
		c-7.2-0.4-7.3-0.6-7.6-7.6c-0.7-13-1.4-26-2-39c-0.2-3.9,1.6-6.7,4.7-8.8c5.9-4.1,11.9-8,18.4-10.8c2.4-1,2.9-2.2,1.7-4.5
		c-4.5-8.6-7-18.2-13.4-25.9c-1.9-2.3-2.1-5.1-0.3-7.7c1.1-1.5,0.9-2.6,0-4.3c-3.3-6.5-6.4-13-9.3-19.7c-16-37.5-29-76-38.4-115.6
		c-6.1-25.8-9.6-52-9.9-78.4c-0.5-43.2,6.9-85,21.9-125.7c9.4-25.5,21.1-49.4,36.9-71.4c1.1-1.6,1.6-3.2,1.8-5.2
		c0.4-4.8,2.8-8.4,7.5-9.7c3-0.8,4.8-2.5,6.3-4.8c12.2-19,26.5-36.1,44-50.4c4-3.2,7.2-4.5,12-1.8c4.7,2.6,9.9,4.2,14.9,6.3
		c1.8,0.8,2.9,0.7,4.2-0.9c4.3-5.8,9.5-10.6,15.2-15c37.8-29.7,78.2-54.7,125.5-66.4c28.7-7.1,57.7-12.2,87.6-11.1
		c34.8,1.3,69.2,4.9,102.3,16.4c36.3,12.6,70,30.3,99.2,55.9c9,7.9,19.2,14.6,27.9,22.9c16.8,16,33.3,32.4,47,51.4
		c6.9,9.5,14.5,18.5,20.9,28.4c1.6,2.4,3.2,3.4,5.8,2.1c5.4-2.6,9-1,12.5,3.9c4.4,6,8,12.2,10.1,19.4c6,20.8,12.5,41.4,18.8,62.1
		c0.5,1.6,0.5,3-0.3,4.6c-7.2,13.6-14.4,27.2-21.2,41c-2,4-1.2,8.9-1.5,13.3c-1.8,23.1-3.6,46.1-5.1,69.2
		c-0.6,8.9-1.9,17.7-1.8,26.6c0,2.1-1,3.5-2.3,4.9c-18.5,20.4-36.9,40.9-55.4,61.3c-1.9,2-2.5,4.1-2.3,6.8
		c0.9,9.8,2.8,19.6,2.3,29.5c-0.1,2.4,1.5,2.6,3.1,2.8c6.8,1.1,13.6,2.3,20.4,3.4c2.3,0.4,4.6,0.9,6.9,1.8c3.6,1.4,5.7,4,6.2,7.8
		c1.6,12.9,3,25.8,4.6,38.7c0.5,4.2-1.3,6.3-5,8.1c-18.5,8.7-38.3,13.9-57.6,20.5c-9.7,3.3-19.5,6.4-29.3,9.5
		C578.5,614.2,574.1,615.5,567.8,617.3z M165.9,616.2c6.4-0.2,12.8,0.4,19.1-0.3c18.8-1.9,37.6-3.8,56.4-5.5
		c20.6-1.9,41-4.7,61.5-7.3c22.8-2.9,45.6-6.4,68.3-10.1c31.2-5,62.7-8.3,94-13.1c40.9-6.2,81.8-13,121.3-25.9
		c13.1-4.3,26.3-8.2,38.4-15c2.6-1.5,4.2-3.1,4.5-6.3c1.4-13.5,0.3-27-1.3-40.4c-0.4-3.3-1.5-3.3-4.1-2.2
		c-7.5,2.9-14.8,6.2-22.5,8.3c-29,7.8-58.3,14.5-87.8,19.8c-36.3,6.5-72.5,13.7-109.2,18c-9.8,1.2-19.6,2.5-29.4,3.5
		c-8.2,0.8-9.9-1.4-7.3-8.8c9.5-26.6,18.8-53.3,28.3-80c1-2.8,0.6-4.2-2.1-5.6c-8-4.2-15.7-8.9-23.7-12.9c-5.8-2.9-9.6-7.5-12.5-13
		c-11.2-21.2-21.5-42.7-30.3-64.9c-6.5-16.2-9.1-33-6.8-50.4c1.6-12.6,5.3-24.7,13.7-34.4c19.4-22.3,42.4-38.5,73-40.8
		c18.1-1.3,35.7,0,52.4,8c16.7,8,32.8,17.1,48.5,27c7,4.4,13.7,5.3,22,2.2C567,252.2,604,239,640.9,225.5
		c18.3-6.7,36.7-13.4,55-20.1c1.2-0.4,2.8-0.5,3.2-2.2c0.8-3.9-2.5-7.2-6.3-6.1c-49.5,14.4-99.2,28.1-148.6,43
		c-5.8,1.7-10.8,0.8-15.5-2.8c-3.8-2.9-7.3-6.1-10.6-9.6c-11.5-11.8-24-22.3-37.7-31.3c-11.5-7.5-23.6-14.1-37.5-16.7
		c-13.9-2.7-27.8-5-42-2.8c-17.5,2.7-33.9,8.7-49.8,16.3c-16,7.6-30.7,16.9-43.1,29.5c-3,3-5.5,3.1-9.5,0.9
		c-18.9-10.7-38.3-20.1-58-29.1c-18.2-8.3-36-17.5-52.4-29.1c-4.6-3.3-7.7-7.5-9.8-12.9c-5.1-12.9-9.8-26-14.7-39
		c-1.6-4.1-3.9-7.4-8-9.6c-8.9-4.7-17.9-8.9-27.3-12.5c-2.7-1-4.5-0.8-6.7,1c-17.1,13.9-30.8,30.7-43,48.9c-2,2.9-2.1,4.4,1.4,6.1
		c14.3,6.9,23.9,18.3,30.8,32.2c4,8.1,7.7,16.3,12.9,23.7c5.5,7.8,11.3,15.4,19.9,20.1c26,14.1,52,28.1,78.7,40.7
		c11.8,5.6,23.3,11.6,33,20.6c4.5,4.2,6.8,9.3,7.1,15.2c0.7,14.8,1.1,29.5,1.6,44.3c0.5,11.8,1.2,23.6,5.5,34.7
		c3.9,9.9,4,19.7,1.2,29.8c-1.2,4.2-3.6,7.1-7.2,9.6c-25.4,17.4-52.8,31.1-79.9,45.5c-14.5,7.7-29,15.4-43.3,23.4
		c-5,2.8-9.9,6.5-11.5,12.3c-4.7,16.6-9.1,33.3-13,50.1c-2.3,10.1-4.9,20.1-11.1,28.9c-4.2,5.9-9.4,8.3-16.4,7.4
		c-6.2-0.8-12.5-0.4-18.8-0.7c-3-0.1-3.8,0.5-2.4,3.5c4,8.2,7.8,16.5,11.5,24.9c1.1,2.4,2.8,3.3,5.2,3.6c10.1,1,20.2,2.1,30.3,1.6
		C131.4,617.8,148.6,615.9,165.9,616.2z M370,5c-14.4-0.9-30.7,0.9-47,3.9c-24.3,4.4-48.2,10.2-71,20.1
		c-31.4,13.7-59.7,32.5-86.4,53.8c-4.3,3.4-8.2,7.3-11.8,11.6c-1.7,2.1-1.5,3.3,0.8,4.2c7.8,2.9,11.4,9.3,14.1,16.5
		c4.6,12.4,9.4,24.8,14.1,37.2c1.1,2.9,2.8,5.2,5.2,7.2c8.7,7.7,18.9,13.1,29.1,18.4c27.4,14.5,56.4,25.9,83.3,41.4
		c2.2,1.3,3.9,0.9,5.6-1c1.7-1.9,3.7-3.8,5.7-5.4c19.5-16,41.7-27.2,65.5-35c15.5-5.1,31.5-7.8,48.1-5.6c16.9,2.2,33,6.2,48,14.9
		c16.6,9.5,32.3,20.6,48.3,31c7.7,5,15.1,5.1,23.2,2.6c17.2-5.4,34.3-10.9,51.6-16.2c24.4-7.5,49-14.4,72.7-23.8
		c3.1-1.2,2.8-2.3,1.3-4.5c-11.5-17.3-24.8-33.4-38.1-49.3c-9.1-10.9-19.7-21-30.6-30.4c-5.3-4.6-10.8-8.9-16.3-13.3
		c-18.1-14.6-35.8-29.8-56.8-40.3c-20.9-10.4-41.7-20.7-64.4-26.6C434.1,8.4,403.4,4.4,370,5z M4.7,349c-0.5,19.3,1.3,38.3,4.3,57
		c6.5,40.8,18.5,80.1,33.8,118.5c5.4,13.5,10.3,27.1,16.9,40.1c1.1,2.2,2.3,3.5,5,3.8c5.3,0.6,10.7,1.4,16.1,1.5
		c7.3,0.1,10.2-1.6,12.1-8.6c5.4-20.3,11.3-40.5,14.5-61.3c1-6.8,3.3-13.2,8.7-17.9c5.6-4.9,11.5-9.2,18.2-12.6
		c8.7-4.4,17.3-9.1,26-13.5c26.6-13.7,52.2-29.3,78.9-42.7c4.1-2.1,8.1-4.6,11.6-7.6c2.5-2.1,3.7-4.7,4.1-8.1
		c0.7-5.3-1.2-10.1-2.1-15.1c-2.3-12.3-6.3-24.3-6.7-36.9c-0.3-9.1-0.2-18.3-0.5-27.4c-0.5-12.3-4.6-22.3-16.3-28.7
		c-17.6-9.6-35.6-18.3-53.8-26.7c-15.1-7-30.3-13.5-44.2-23c-13.2-9-23.5-20.1-29.9-34.8c-3-6.9-6.3-13.6-10.2-20.1
		c-5.7-9.4-13.2-16.9-22.9-22.3c-3.1-1.7-5.2-1.5-7.4,1.8C35.8,199.7,20.8,239,12.2,280.8C7.5,303.3,3.5,326,4.7,349z M486.3,318.6
		c0,14.4-4.9,32.3-11.4,41.3C459.3,382,438.4,394,410.7,392c-18.4-1.3-33.8-9.2-46.4-22.7c-1.7-1.8-3.7-3-6-3.5
		c-6.4-1.6-12.9-3.2-19.3-4.8c-1.2-0.3-2.6-1.2-3.5-0.2c-0.9,1.1,0.3,2.4,0.8,3.5c7.4,18.2,16.5,35.6,25.4,53.1
		c2.7,5.4,6.7,9.1,12,11.9c7.5,3.9,14.8,7.9,22,12.1c2.6,1.5,4.6,1.5,7.2,0c19-10.9,38.1-21.6,57.1-32.4
		c84.6-47.9,169.2-95.9,253.9-143.7c2.9-1.6,3.4-3.2,2.4-6.3c-4.8-15.4-9.6-30.8-14.1-46.3c-1-3.4-2.1-4.3-5.7-2.9
		c-43.7,16.1-87.4,32-131.1,47.9c-10.7,3.9-21.4,7.8-32.1,11.7c-3.4,1.2-6.4,3.2-10.2,3.3c-6.7,0.2-12.5-2-18-5.6
		c-15.4-10-31.4-18.6-48-26.3c-2.8-1.3-5.8-2.4-8.7-3.6c-1.9-0.8-2.8-0.2-3,1.8c-0.5,3.7-0.9,7.5-1.7,11.1c-0.6,2.7,0.2,4.3,2.5,5.5
		c5.9,2.9,11.3,6.9,15.8,11.3C477.3,281.8,487.1,299.2,486.3,318.6z M642.6,468.1c-0.2-0.2-0.3-0.4-0.5-0.6c-1.3,0.3-2.7,0.5-4,0.9
		c-20.5,5.5-41.3,10.1-62.3,13.2c-19.8,2.9-39.6,5.8-59.3,8.9c-13.9,2.2-27.7,4.2-41.8,4.4c-6.4,0.1-7.7-1.1-7.4-7.3
		c0.5-11.4,1.6-22.7,2-34.1c0.1-4,1.8-6.1,5.3-7.5c9.4-3.8,18.7-7.8,28-11.8c60.9-26.4,121.7-52.8,182.6-79.1
		c0.8-0.4,1.6-0.7,2.5-0.8c1.3-0.2,2.6-0.3,3,1.4c0.4,1.4-0.5,2.1-1.6,2.6c-1.3,0.6-2.5,1.1-3.8,1.7c-68.7,29.8-137.3,59.6-206,89.2
		c-3.9,1.7-5.4,4.2-5.6,7.9c-0.8,10.5-1.3,21-2,31.5c-0.1,1.6,0.2,2.2,2,2.1c10-0.3,20-0.8,29.9-2.3c18.4-2.8,36.8-6,55.3-8.4
		c29.1-3.8,57.7-9.8,86-17.5c2.4-0.7,4.8-1.4,6.6-3.4c11.6-12.9,23.3-25.9,34.9-38.8c0.8-0.9,1.7-1.8,1.7-3.2
		c-0.3-9.4,1.1-18.7,1.7-28.1c1-15.6,2.3-31.2,3.5-46.8c0.7-10.1,1.4-20.1,2.2-30.8c-1.6,0.8-2.8,1.4-3.9,2
		c-44.4,23.4-88.8,46.9-133.1,70.3c-53.7,28.4-107.3,56.8-161,85.1c-2.3,1.2-3.6,2.8-4.5,5.2c-6.4,18.3-13,36.6-19.4,54.8
		c-2.5,7.1-2.3,7.5,5.2,6.6c20.8-2.7,41.8-4.8,62.4-8.5c41.5-7.4,83.2-13.8,124.2-23.6c20.7-5,41.4-9.7,61-18.3c1-0.5,2.3-0.8,3-1.5
		C633.6,478.1,638.1,473.1,642.6,468.1z M419,232.6c-18.5,0.5-36.3,3.7-52.1,14.2c-6,4-11.4,8.9-17,13.4
		c-9.1,7.2-16.2,15.9-20.3,26.4c-8.5,21.9-6.9,44.1,1.7,65.9c0.6,1.6,1.5,2.7,3.4,3.1c7.8,1.7,15.6,3.6,23.4,5.5
		c3.5,0.9,6.7,2.3,9.3,5.2c10.1,10.8,22.3,17.8,37,20.6c19.4,3.7,36.7-1.3,51.9-12.9c11.5-8.7,18.8-20.8,22.9-34.8
		c5.3-18.2,3.3-35.4-6.3-51.6c-7.4-12.5-18-22-30.7-29.1c-2.6-1.5-3.8-3.2-3.2-6.4c0.9-4.7,1.2-9.4,2-14.1c0.4-2.4-0.5-3.2-2.6-3.5
		C432,233.7,425.6,232.4,419,232.6z M83.2,581.1C83.2,581.1,83.2,581.2,83.2,581.1c2.4,0.1,4.8,0,7.1,0.1c4.6,0.2,8.1-1.5,10.8-5.5
		c3.5-5.1,6.1-10.6,7.7-16.6c4.9-19.1,10-38.2,14.7-57.4c1.8-7.2,5.6-12.7,11.8-16.6c15.4-9.6,31.9-17.3,47.6-26.2
		c9.6-5.4,19.5-10.2,29.2-15.3c16.4-8.6,32.2-18.2,47.6-28.6c4.2-2.8,6.6-6.3,7.5-10.9c1.5-7.8,1.7-15.6-1.6-23.2
		c-1.3-3.1-2.2-6.4-3-9.7c-3.3-13.6-3.1-27.5-3.7-41.4c-0.4-9.3-0.5-18.5-0.9-27.8c-0.2-5.6-1.7-10.8-6.3-14.7
		c-6.2-5.1-12.5-9.9-19.8-13.5c-27.8-13.9-55.4-28-82.9-42.4c-13-6.8-23-16.1-30.8-28.3c-5.3-8.3-9-17.3-13.9-25.7
		c-5.7-10-12.7-18.9-23.1-24.4c-2.7-1.4-5.2-3-8-4.1c-3.2-1.3-6.4,0.1-7.5,3c-1.2,3.2,0,5.2,3.2,6.4c5.7,2.2,10.2,6.3,14.6,10.3
		c6.7,6.1,11.9,13.5,15.7,21.5c4.4,9.2,7.9,18.9,13.9,27.3c8.9,12.5,21.8,20,34.6,27.5c11.3,6.7,23.9,10.9,35.7,16.7
		c17.4,8.5,35.2,16.3,51.7,26.5c4.8,2.9,9.2,6.7,11.2,12.2c3.6,9.8,3.6,20.1,3.6,30.4c0.1,12.9,0.6,25.7,4.1,38.3
		c1.9,7,3.4,14.1,4.8,21.2c1.5,7.9,0,14.9-6.9,20c-3.3,2.5-6.8,4.7-10.4,6.6c-5.3,2.8-10.8,5.3-16,8.3
		c-27.6,15.6-55.4,30.6-83.6,45.1c-7.3,3.8-14.5,7.8-20.9,13.2c-4.7,4-7.8,8.7-8.9,14.8c-3.7,21.7-9,43-15.1,64.2
		c-2.9,10-7.9,13.1-18.1,11.9c-4-0.4-8-0.8-11.9-1.1c-2.5-0.2-6,2.8-5.8,4.8c0.4,3.1,3,2,4.8,2.2C71.7,580.6,77.4,580.8,83.2,581.1z
		 M714.5,271.1c-0.2-0.2-0.4-0.4-0.7-0.6c-1.2,0.6-2.5,1.2-3.7,1.9c-28.2,16-56.4,31.9-84.6,47.9c-70.9,40.2-141.8,80.3-212.7,120.5
		c-11.2,6.4-11.2,6.3-15.1,18.3c-0.3,1-1.4,2.3-0.5,3.1c1.2,1.1,2.3-0.3,3.3-0.8c9.8-5.2,19.5-10.6,29.4-15.8
		c11.2-5.9,22.5-11.5,33.6-17.4c19.3-10.1,38.5-20.3,57.7-30.5c20.4-10.9,40.8-21.8,61.3-32.7c17.2-9.1,34.5-18.1,51.8-27.1
		c16-8.4,32.2-16.7,48-25.4c7.4-4.1,15.9-6.5,19.5-16C705.2,287.8,710.2,279.6,714.5,271.1z M52.7,628.3c1,1.1,1.9,0.9,2.7,0.9
		c10.6,0.5,21.2,1.3,31.8,0.8c19.6-0.8,39.3,0.4,58.9-1.7c17.2-1.8,34.4-3,51.5-5.1c16.6-2.1,33.3-4.2,50.1-4.6
		c14.7-0.4,29.2-2.2,43.7-4.4c24.1-3.6,48.2-7.6,72.4-10.7c32-4.1,62.1-6.9,93.9-12.2c34.1-3.8,68.4-11.2,103.3-19.8
		c23.9-5.6,40.4-9.1,66.7-19.2c14.7-5.5,22.9-9.1,34.6-15.1c1.4-0.7,3.5-1.2,3.2-3.2c-0.2-1.8-2.3-2-3.8-2.5
		c-6.4-1.8-13-2.6-19.5-3.6c-7.5-1.2-7.8-2.4-8.6,6.9c-0.2,2.3-0.2,4.8-2.8,6.1c-8.2,4-16.1,8.6-24.8,11.6
		c-52.6,18.1-107,27.5-161.9,34.7c-26.2,3.4-52.3,6.8-78.4,11.1c-32.8,5.4-65.8,9.8-98.9,13.8c-14.1,1.7-28.4,2.9-42.6,4.3
		c-19.7,2-39.3,4.8-59.1,4c-10-0.4-20,0.4-30,1.3c-17.9,1.6-35.7,2.2-53.5-0.6c-2.6-0.4-5.3-0.7-6.3-3.8c-0.4-1.1-1.3-1.5-2.4-1.1
		C65.4,619.2,58.8,623.2,52.7,628.3z M520.5,219.6c-0.3,0.4-1,4.5-1.2,4.8c3.2,1.9,4.7,3,7.2,5.4c5.9,6.3,12.4,7.2,20.7,4.7
		c37.2-11.1,74.5-21.6,111.8-32.3c11.1-3.2,22.1-6.4,33.2-9.6c1-0.3,3.3-0.3,2.3-1.9c-2-3.4-4.3-6.9-7.5-9.2c-2.3-1.7-5.4,0-7.9,0.9
		c-14,5.6-28.4,9.6-42.7,14.4c-31.3,10.5-63.3,18.9-94.5,29.8c-1.7,0.6-3.4,0.6-5.2,0.5C529.7,226.8,527.3,222.6,520.5,219.6z"/>
	<g>
		<path d="M621.1,672c-2.5,0-3.1-2-4.1-5.3l-0.6-2c-0.5-1.7-1.1-3.5-1.6-5.2c-1.8-5.9-1.4-6.7,4.4-8.6c17.9-5.8,35.7-11.5,53.6-17.3
			c1.2-0.4,2.3-0.8,3.5-1.2c1.7-0.6,3.4-1.2,5.1-1.7c1.2-0.4,1.5-0.6,1.6-0.7c0,0,0.1-0.3-0.2-1.2c-0.4-1.2-0.7-1.2-0.9-1.2
			c-0.4,0-1,0.2-1.5,0.3c-14.8,4.9-30.7,10.1-51.3,16.9c-2.9,1-5.9,1.9-8.8,2.8c-1.3,0.4-2.5,0.8-3.7,1.1c-0.6,0.2-1.4,0.4-2.2,0.4
			c-1.7,0-2.9-1-3.4-2.7c-2.8-9.5-5.7-18.9-8.5-28.4c-0.1-0.5-0.1-0.9-0.1-1.2c0-0.1,0-0.2,0-0.3l0-0.1c0.1-5.8,5.2-12,11.7-14.1
			c6.7-2.2,13.5-4.4,20.2-6.7c11.7-3.8,23.3-7.7,35-11.6c6.1-2,12.3-4.2,18.3-6.5c1-0.4,1.8-0.6,2.6-0.6c3,0,3.8,2.8,4.1,3.7
			c1.1,3.6,2.3,6.8,3.6,9.7c0.5,1.1,1,2.8,0.4,4.3c-0.7,1.6-2.4,2.4-3.8,2.9c-20.2,7.2-40.9,14.2-61.5,20.9
			c-0.3,0.1-0.6,0.2-0.9,0.2c-1.4,0.3-1.4,0.3-1.2,1.2c0.4,1.8,0.8,1.8,1.2,1.8c0.4,0,0.9-0.1,1.6-0.3l8-2.7
			c17.4-5.8,35.5-11.7,53-18.2c1.5-0.6,2.5-0.8,3.5-0.8c3,0,4.1,2.6,4.7,4.5c1.6,5.3,3.6,10.6,5.6,15.7c0.6,1.7,1.3,3.4,1.9,5
			c1.9,5.1,1.9,9.5,0.2,13.2c-1.8,3.7-5.3,6.5-10.5,8.3c-17.3,5.8-35.6,12-54.4,18.2c-6,2-12.1,3.9-18.1,5.7l-2.3,0.7
			C623.3,671.7,622.1,672,621.1,672z"/>
		<path class="st0" d="M690.2,578.5c1.3,0,2.1,0.8,2.7,2.6c1,3.3,2.2,6.7,3.6,9.9c1.3,2.9,0.3,4.1-2.6,5.2
			c-20.4,7.2-40.9,14.2-61.5,20.9c-1.5,0.5-3.7,0.4-3,3.2c0.5,2.1,1.2,2.9,2.7,2.9c0.6,0,1.3-0.1,2.1-0.4
			c20.4-6.8,40.9-13.4,61.1-20.9c1.2-0.4,2.1-0.7,2.9-0.7c1.5,0,2.5,0.9,3.3,3.5c2.2,7,4.9,13.9,7.5,20.8c3.5,9.4,0.2,16.3-9.5,19.5
			c-18.1,6.1-36.3,12.2-54.4,18.2c-6.8,2.2-13.6,4.3-20.4,6.4c-1.6,0.5-2.7,0.8-3.5,0.8c-1.4,0-1.7-1.1-2.7-4.2
			c-0.7-2.4-1.5-4.8-2.2-7.2c-1.5-5.2-1.5-5.2,3.5-6.8c17.8-5.8,35.7-11.5,53.5-17.3c2.9-0.9,5.7-2,8.5-2.9c2.1-0.6,3.3-1.3,2.3-3.9
			c-0.6-1.6-1.3-2.1-2.4-2.1c-0.6,0-1.2,0.2-2,0.4c-17.1,5.7-34.2,11.3-51.3,16.9c-4.2,1.4-8.4,2.6-12.5,3.9
			c-0.6,0.2-1.2,0.3-1.7,0.3c-0.9,0-1.6-0.4-1.9-1.6c-2.8-9.5-5.7-18.9-8.5-28.4c-0.1-0.4,0-0.8,0-1.1c0.1-5.1,4.8-10.8,10.7-12.7
			c18.4-6.1,36.8-12.1,55.2-18.2c6.2-2,12.3-4.2,18.4-6.6C688.9,578.6,689.6,578.5,690.2,578.5 M690.2,575.5L690.2,575.5
			c-0.9,0-2,0.2-3.1,0.7c-6,2.3-12.2,4.5-18.2,6.5c-11.7,3.9-23.5,7.8-35,11.6c-6.7,2.2-13.5,4.4-20.2,6.7
			c-7.2,2.4-12.7,9-12.8,15.5l0,0.1l0,0.1c0,0.1,0,0.1,0,0.2c0,0.4,0,0.9,0.1,1.5l0,0.1l0,0.1c3,10.2,5.8,19.5,8.5,28.4
			c0.7,2.4,2.5,3.8,4.8,3.8c0.9,0,1.8-0.2,2.5-0.4c-1.9,0.7-3.1,1.4-3.9,2.9c-1,1.9-0.4,3.8,0.5,6.9c0.5,1.8,1.1,3.6,1.6,5.3
			l0.6,1.9c1,3.4,1.9,6.4,5.6,6.4c1.2,0,2.5-0.4,4.3-1l2.4-0.7c5.9-1.8,12.1-3.7,18.1-5.7c19.2-6.4,37-12.3,54.5-18.2
			c5.6-1.9,9.4-4.9,11.4-9c1.9-4.1,1.9-8.9-0.1-14.4c-0.6-1.7-1.3-3.4-1.9-5c-1.9-5.1-3.9-10.4-5.5-15.6c-0.4-1.4-1.7-5.6-6.1-5.6
			c-0.6,0-1.2,0.1-1.9,0.2c1.3-0.6,2.7-1.6,3.3-3.1c1-2.3,0-4.7-0.4-5.5c-1.2-2.9-2.4-6-3.5-9.6C694.5,576.3,692,575.5,690.2,575.5
			L690.2,575.5z M632.4,620.1c0.3-0.1,0.6-0.1,0.9-0.2c0.4-0.1,0.8-0.3,1.2-0.4c-0.5,0.2-0.9,0.3-1.4,0.5
			C632.9,620,632.6,620.1,632.4,620.1C632.4,620.1,632.4,620.1,632.4,620.1L632.4,620.1z M666.4,634.1c3.3-1.1,6.5-2.1,9.6-3.2
			c-0.1,0-0.1,0-0.2,0.1c-1.1,0.4-2.3,0.8-3.4,1.2C670.4,632.8,668.4,633.4,666.4,634.1L666.4,634.1z"/>
	</g>
	<path d="M89.4,830.1c-14.8,0-27.6,0-40.3,0c-2.2,0-4-0.3-4-3.1c0.3-16,0.3-32,1-48c0.5-10.3,5.5-14.5,16.1-14.6
		c13-0.1,26,0.1,39-0.1c14.1-0.2,28.3-0.8,42.4-1.2c6.7-0.2,6.7-0.3,6.8,6.3c0,2.4-0.2,4.8,0.1,7.1c0.5,3.7-1,4.7-4.5,4.8
		c-23.1,0.6-46.3,1-69.4,0.9c-5.4,0-5.6,0.1-5.7,5.7c-0.1,7,0.1,14-0.1,21c-0.1,2.9,1.1,3.5,3.8,3.6c16.3,0.2,32.5-0.7,48.8-0.7
		c2.7,0,3.5-1.2,3.3-3.6c-0.3-4.6-0.3-9.3-0.6-13.9c-0.2-2.8,0.8-4.2,3.8-4.3c6.1-0.1,12.3-0.3,18.4-0.5c2.1-0.1,2.9,0.9,2.9,2.9
		c0.4,10.6,0.9,21.2,1.4,31.9c0.2,4.5-0.2,4.9-4.8,5C127.6,829.5,107.5,830.5,89.4,830.1z"/>
	<path d="M296.9,705.5c0.7,6.1,1.2,11.4,1.9,16.7c0.5,4.3,1,8.7,1.6,13c0.3,2.1-0.4,3-2.5,3.3c-6,0.7-11.9,1.4-17.9,2.1
		c-2.4,0.3-3.6-0.4-3.9-3.1c-1.4-13.5-3-27.1-4.3-40.6c-0.3-2.8-1.1-4.9-3.3-6.8c-3.9-3.3-7.6-6.9-11.4-10.4
		c-0.7-0.6-1.8-1.2-1.2-2.4c0.4-0.9,1.5-0.7,2.4-0.8c8.6-1,17.1-1.9,25.7-2.9c2.6-0.3,4.8,0.3,7,1.8c10.4,6.9,21,13.6,31.4,20.5
		c2.5,1.7,4,1.4,5.9-0.9c8-9.3,16.3-18.4,24.3-27.6c2-2.3,4-3.9,7.2-4.1c3.5-0.3,6.9-1.1,10.4-1.7c2.5-0.5,3.9,0.1,4.3,3
		c2.8,17.6,5.9,35.3,8.8,52.9c1.4,8.5,1.3,8.5-7.1,10c-3.8,0.7-7.7,1.2-11.5,1.9c-3.1,0.6-4.5-0.3-5-3.6c-1-7.9-2.3-15.8-3.6-23.7
		c-0.2-1.2,0.3-3.2-1.3-3.6c-1.2-0.3-1.9,1.4-2.7,2.3c-6.7,7.4-13.5,14.8-20,22.4c-2,2.3-3.5,2.5-6,0.9c-8.8-5.8-17.7-11.3-26.6-17
		C299.1,706.7,298.4,706.3,296.9,705.5z"/>
	<g>
		<path d="M514.6,701c-3.4,0-4.4-2.6-4.8-4.9c-2.1-9.6-4.4-19.4-7.1-29.9c-0.4-1.5-0.7-3.3,0.3-4.9c1-1.5,2.8-2,4.3-2.3
			c5.1-1,10.3-2.4,15.3-3.7l0.2-0.1c0.7-0.2,1.3-0.3,1.8-0.3c2.1,0,3.5,1.3,4.1,3.8c0.5,2.1,1,4.1,1.5,6.2c0.7,2.7,1.4,5.6,2,8.4
			c0.4,1.5,0.7,1.5,1.1,1.5c0.3,0,0.8-0.1,1.3-0.2c15.6-4.3,30.9-8.4,45.3-12.1c1-0.3,1.2-0.5,1.2-0.6c0.1-0.1,0.1-0.4-0.2-1.6
			l-0.5-1.6c-2-6.8-4.1-13.9-5.9-20.9c-0.4-1.6-0.8-1.6-1.1-1.6c-0.4,0-0.8,0.1-1.5,0.3c-23.3,6.6-44.9,12.2-66.1,17.3
			c-1.1,0.3-2.1,0.4-3,0.4c-2,0-3.8-0.6-5.6-1.9c-2.5-1.9-5.1-3.7-7.7-5.4c-1.6-1.1-3.3-2.3-4.9-3.4c-0.1-0.1-0.3-0.2-0.5-0.3
			c-0.9-0.5-2.7-1.6-2.1-3.7c0.5-1.9,2.4-2.2,3.4-2.3c0.2,0,0.4-0.1,0.6-0.1c21.7-4.9,44-10.6,66.5-16.7c1.5-0.4,3.1-0.8,4.6-1.2
			c4-1,8.2-2.1,12.1-3.7l0.1,0l16.2-4.7l0.1,0c2.1-0.3,3.6-0.5,4.8-0.5c4.1,0,4.8,2.5,6.4,7.9c1.1,3.7,2.2,7.5,3.2,11.2
			c2.5,8.7,5.1,17.8,8,26.5c3.4,10-2.7,19.6-10.4,23c-5.6,2.5-11.5,4-17.2,5.4c-2,0.5-4,1-6,1.6c-17.1,4.7-35.3,9.4-57.4,14.8
			C516.2,700.8,515.3,701,514.6,701z"/>
		<path class="st0" d="M590.5,611.6c2.9,0,3.4,1.5,5,6.9c3.7,12.6,7.1,25.3,11.3,37.7c3,8.9-2.3,17.9-9.6,21.2
			c-7.3,3.3-15.3,4.8-23,6.9c-19,5.3-38.2,10.1-57.4,14.8c-0.9,0.2-1.6,0.3-2.2,0.3c-1.9,0-2.8-1.1-3.4-3.7c-2.2-10-4.5-20-7.1-29.9
			c-0.9-3.4,0-4.7,3.4-5.3c5.3-1,10.5-2.4,15.7-3.8c0.5-0.1,1-0.2,1.4-0.2c1.4,0,2.2,0.9,2.6,2.6c1.2,4.9,2.5,9.7,3.6,14.6
			c0.4,1.9,1.2,2.7,2.6,2.7c0.5,0,1-0.1,1.7-0.3c15.1-4.1,30.2-8.2,45.3-12.1c2.7-0.7,2.7-1.9,2-4.1c-2.2-7.4-4.4-14.9-6.3-22.4
			c-0.5-2-1.3-2.8-2.6-2.8c-0.5,0-1.2,0.1-1.9,0.3c-21.9,6.2-43.9,12-66,17.3c-0.9,0.2-1.8,0.3-2.6,0.3c-1.7,0-3.2-0.5-4.7-1.6
			c-4.1-3.1-8.4-5.9-12.6-8.9c-0.9-0.6-2.3-1.1-2-2.4c0.3-1.2,1.9-1.1,2.9-1.3c22.3-5.1,44.5-10.7,66.6-16.8
			c5.7-1.6,11.4-2.7,16.9-4.9c5.3-1.6,10.7-3.1,16-4.7C588,611.8,589.4,611.6,590.5,611.6 M590.5,608.6L590.5,608.6
			c-1.3,0-2.9,0.2-5,0.5l-0.2,0l-0.2,0.1c-2.7,0.8-5.3,1.6-8,2.3c-2.7,0.8-5.3,1.6-8,2.3l-0.1,0l-0.1,0.1c-3.8,1.5-7.8,2.5-11.9,3.6
			c-1.5,0.4-3.1,0.8-4.7,1.2c-22.4,6.2-44.8,11.8-66.4,16.7c-0.1,0-0.3,0-0.5,0.1c-1.1,0.1-3.9,0.5-4.7,3.4
			c-0.6,2.1,0.4,3.9,2.8,5.4c0.1,0.1,0.3,0.2,0.4,0.2c1.6,1.2,3.3,2.3,4.9,3.4c2.5,1.7,5.1,3.5,7.6,5.4c2,1.5,4.1,2.2,6.5,2.2
			c1,0,2.1-0.1,3.3-0.4c21.2-5.1,42.9-10.7,66.2-17.3c0.3-0.1,0.5-0.1,0.6-0.2c0,0.1,0.1,0.3,0.1,0.4c1.8,7.1,3.9,14.1,5.9,21
			l0.4,1.5c0,0.1,0.1,0.2,0.1,0.3c-14.5,3.7-29.7,7.8-45.3,12.1c-0.2,0-0.3,0.1-0.4,0.1c0-0.1-0.1-0.2-0.1-0.3
			c-0.6-2.8-1.4-5.7-2.1-8.4c-0.5-2-1.1-4.1-1.5-6.2c-1-4.3-3.9-5-5.5-5c-0.7,0-1.4,0.1-2.2,0.3l-0.3,0.1c-5,1.3-10.1,2.7-15.2,3.7
			c-1.6,0.3-4,1-5.3,3c-1.3,2-0.9,4.4-0.5,6c2.7,10.5,5,20.2,7.1,29.8c0.3,1.5,1.3,6.1,6.3,6.1c0.9,0,1.8-0.1,3-0.4
			c22.1-5.4,40.4-10.1,57.5-14.9c2-0.5,4-1.1,5.9-1.6c5.8-1.5,11.8-3,17.5-5.5c8.4-3.7,14.9-14,11.3-24.9c-2.9-8.7-5.5-17.7-8-26.4
			c-1.1-3.7-2.1-7.5-3.2-11.2C596.7,612,595.7,608.6,590.5,608.6L590.5,608.6z"/>
	</g>
	<path d="M153.1,721.8c-0.1-2.8-0.2-5.5-0.4-8.2c-0.3-2.4,0.6-3.4,3.1-3.5c6-0.2,12-0.5,18-0.8c2.1-0.1,2.9,0.6,3,2.7
		c0.2,5,0.6,10,0.7,15c0,2.8,1.1,3.8,3.8,3.6c13.6-0.9,27.2-1.7,40.8-2.8c2.9-0.2,6.7,1.1,8.5-1.5c1.6-2.2-0.1-5.5-0.2-8.4
		c-0.3-6.1-1-12.2-1.4-18.3c-0.1-2-1.1-2.6-2.9-2.4c-15.2,1.5-30.4,2.4-45.7,3.2c-8.2,0.5-16.5,0.8-24.7,1.2
		c-2.4,0.1-3.3-0.8-3.4-3.2c-0.4-9,4.5-14.4,14.8-15.1c16.5-1.2,32.9-2.1,49.4-3.1c6.9-0.4,13.7-1.3,20.6-1.4
		c9.4-0.2,13.9,3.8,15,13c1.4,11.7,2.3,23.4,3.6,35.1c1.3,12-8,16.7-16.3,17.5c-18.3,1.8-36.6,3.1-55,4c-4.6,0.2-9.2,0.8-13.9,0.7
		c-10.6-0.3-15.8-5.1-16.8-15.5c-0.4-3.9-0.5-7.7-0.8-11.6C152.9,721.8,153,721.8,153.1,721.8z"/>
	<path d="M72.9,716.8c0,10.2,0,19.6,0,29c0,5.4-0.1,5.4-5.4,5.4c-5,0-10-0.1-15,0c-2.8,0.1-4.1-0.7-4-3.8c0.3-14-0.1-28,0.6-42
		c0.1-2.2-0.8-3.6-2.1-5c-3.5-4.1-7-8.1-10.5-12.2c-0.6-0.7-1.7-1.5-1.3-2.5c0.5-1.3,1.9-0.9,3-0.9c9.1,0.2,18.3,0.4,27.4,0.6
		c1.9,0,3.3,1.1,4.7,2c14.5,9.9,29,19.7,43.5,29.5c1.1,0.7,2.2,2.3,3.6,1.5c1.3-0.8,0.6-2.5,0.6-3.9c-0.1-8.8-0.1-17.5-0.3-26.3
		c-0.1-2.7,1-3.6,3.4-3.6c5.8,0,11.5,0,17.3-0.2c2.3-0.1,3.1,0.8,3.2,3c0.1,5.1,0.4,10.2,0.6,15.4c0.5,14.5,1,29,1.5,43.5
		c0.1,2.9-0.8,4.1-3.8,4.1c-4.3-0.1-8.5,0.1-12.8,0.3c-2.1,0.1-3.6-1-5.1-2c-14.9-9.7-29.8-19.4-44.6-29.1
		C76.1,718.8,74.9,718.1,72.9,716.8z"/>
	<path d="M613.8,754.3c-0.7,1.3-1.8,1.3-2.7,1.5c-8.5,2.4-17.1,4.8-25.7,7.2c-2.4,0.7-4.5,0.6-6.9-0.5c-7.2-3.3-14.5-6.2-21.7-9.5
		c-2.6-1.2-4.2-0.9-6,1.5c-4.5,6.2-9.4,12.1-14,18.1c-1.7,2.3-3.8,3.7-6.7,4.3c-8,1.7-15.8,3.7-23.8,5.5c-1.4,0.3-2.8,1.1-4.4,0.3
		c0-2,1.5-3.1,2.6-4.4c8.5-10.8,17.1-21.6,25.6-32.4c2.9-3.7,2.8-3.7-1.6-5.8c-12.9-6.2-25.7-12.4-38.5-18.6
		c-0.9-0.4-1.9-0.7-2.5-1.9c0.7-1.1,2-1.1,3.2-1.4c8.2-1.9,16.3-3.8,24.5-5.7c2.5-0.6,4.6-0.3,6.9,0.8c6.9,3.3,13.9,6.4,20.7,9.8
		c2.7,1.3,4.3,1,6-1.4c4.6-6.4,9.4-12.7,14-19c1.3-1.8,2.9-2.9,5.1-3.5c8.1-2.1,16.2-4.4,24.3-6.7c1.2-0.3,2.3-0.8,3.6-0.5
		c0.3,1.6-0.9,2.4-1.6,3.4c-8.5,11.8-16.9,23.6-25.5,35.3c-1.8,2.4-1.7,3.3,1.1,4.5c13.2,5.5,26.3,11.1,39.4,16.7
		C610.8,752.7,612.5,753,613.8,754.3z"/>
	<path d="M433.7,730.5c1.7-0.2,2.8,1,3.9,2c14.2,13,28.4,26.1,42.6,39.1c4.1,3.7,8.2,7.3,12.4,11c1.8,1.6,2.1,2.7-0.8,3.3
		c-7.4,1.5-14.7,3-22,4.7c-2,0.5-3.3-0.2-4.7-1.4c-3.9-3.5-7.9-6.9-11.8-10.5c-1.4-1.3-2.7-1.7-4.7-1.3c-9.4,1.9-18.9,3.7-28.4,5.3
		c-2,0.3-3,1.3-3.9,3c-2.4,4.7-5,9.3-7.3,14c-0.9,1.9-2.3,2.9-4.3,3.2c-7.3,1.1-14.6,2.3-21.9,3.5c-2.6,0.5-2.9-0.5-1.9-2.6
		c5.6-11.2,11.3-22.3,16.9-33.5c1.2-2.5,3.6-2.5,5.7-2.9c9.2-1.7,18.5-3.3,27.7-5c0.9-0.2,2.3,0.1,2.7-0.9c0.5-1.3-1-1.8-1.6-2.7
		c-2.3-3.3-5.3-3.8-9.1-2.9c-5.3,1.3-10.8,2-16.2,3c-2.5,0.5-2.9-0.4-1.9-2.6c1.2-2.9,4.1-5.9,3.3-8.5c-1-3.1-5.1-4.4-7.7-6.8
		c-1.1-1-3.5-1.6-3-3.3c0.4-1.4,2.6-1.1,4-1.3c10.1-1.9,20.2-3.7,30.2-5.6C432.5,730.6,433.1,730.5,433.7,730.5z"/>
	<path d="M220,759c3.8-1.5,6.4,0.8,8.9,3.9c15.2,18.3,31,36.1,46.9,53.7c0.7,0.8,2,1.5,1.5,2.8c-0.5,1.2-2,0.8-3,0.9
		c-6.6,0.7-13.2,1.3-19.8,2.1c-2.7,0.3-4.8-0.2-6.7-2.3c-3.3-3.8-6.8-7.4-10.1-11.2c-1.5-1.7-3.1-2.3-5.3-2.1
		c-9.6,0.8-19.2,1.5-28.8,2.2c-1.8,0.1-2.7,1.1-3.5,2.4c-2.7,4-5.6,8-8.2,12.1c-1.5,2.4-3.3,3.7-6.3,3.7c-6.9,0.2-13.7,0.8-20.6,1.2
		c-0.9,0-2.1,0.4-2.8-0.6s0.4-1.9,0.9-2.7c6.7-10.1,13.4-20.3,20-30.4c1.3-2.1,3.1-2.6,5.3-2.7c9.9-0.6,19.7-1.3,29.6-2.1
		c0.8-0.1,2,0.3,2.4-0.6c0.6-1.1-0.7-1.7-1.2-2.5c-2-3.4-4.8-4.6-8.8-4.2c-5.3,0.6-10.7,0.9-16.1,1.3c-1,0.1-2.1,0.5-2.8-0.5
		c-0.7-1,0.4-1.8,0.8-2.7c1.3-2.8,4.8-5.2,3.9-8.1c-0.8-2.5-4-4.3-6-6.5c-1.2-1.3-3.9-2.5-3.3-4.1c0.7-1.7,3.5-1.2,5.4-1.3
		C201.5,760.1,210.4,759.6,220,759z"/>
	<path d="M444.8,679.3c-3.3-5.5-7.3-7.3-13-5.5c-4.2,1.3-8.6,1.8-12.9,2.6c-1,0.2-2.1,0.7-2.9-0.1c-0.8-0.9,0-1.9,0.3-2.8
		c3.2-8.5,3.2-8.5-4-14.1c-1.4-1.1-4.1-1.9-3.7-3.7c0.4-1.9,3.2-1.4,4.9-1.8c8.8-1.8,17.7-3.4,26.5-5.3c3.1-0.7,5.4-0.2,7.7,2.1
		c12.7,12.1,25.6,24,38.4,35.9c4.8,4.4,9.7,8.7,14.5,13c2,1.8,2.2,2.9-0.8,3.6c-6.9,1.5-13.7,3-20.5,4.6c-2,0.5-3.3,0-4.7-1.3
		c-3.7-3.4-7.5-6.6-11.2-10c-1.6-1.5-3.1-2.1-5.4-1.6c-8.9,1.9-17.9,3.6-26.8,5.4c-1.8,0.3-2.8,1.3-3.6,3c-2,4.3-4.3,8.5-6.2,12.8
		c-1.2,2.8-2.9,4.3-6,4.7c-6.4,0.9-12.8,2.2-19.2,3.4c-2.7,0.5-3.4-0.2-2.1-2.9c5.2-10.8,10.2-21.7,15.2-32.7c1-2.1,2.4-2.9,4.6-3.3
		C424.1,683.4,434.3,681.4,444.8,679.3z"/>
	<path d="M288.3,818.9c-2.6,0.8-3.4-1.1-3.6-3.5c-1.3-12.7-2.7-25.4-3.9-38c-0.4-3.9-1.2-7.2-4.6-9.7c-3.9-2.9-7.4-6.3-11.1-9.6
		c-0.6-0.6-1.6-1.1-1.5-2c0.2-1.3,1.6-1.1,2.5-1.2c8-0.9,15.9-1.8,23.9-2.6c3.2-0.3,6.5-0.6,9.7-1c2-0.3,3.1,0.3,3.3,2.4
		c1.5,12.8,3,25.6,4.6,38.4c0,0.4,0,0.8,0.1,1.1c0.5,5.4,0.7,5.6,6.1,4.9c17-2.3,34-4.5,50.9-7c3.3-0.5,4.3,0.5,4.6,3.5
		c0.3,2.9,0.9,5.7,1.3,8.5c0.8,4.9,0.5,5.3-4.4,5.9c-10.6,1.5-21.3,3.1-31.9,4.5c-14.5,1.9-29,3.6-43.5,5.3
		C289.9,818.8,289.3,818.8,288.3,818.9z"/>
	<path d="M709.6,655.5c0.2,2-0.8,3-1.5,4.2c-8.7,13.8-17.3,27.6-26.1,41.2c-1.6,2.5-1.9,4.6-0.9,7.3c2.4,6.7,4.4,13.5,6.8,20.3
		c0.9,2.7,0.3,3.8-2.4,4.6c-5.9,1.7-11.7,3.6-17.5,5.6c-2.5,0.9-3.6,0.2-4.3-2.3c-2.1-7-4.5-13.8-6.5-20.8c-0.8-2.7-2.2-4.1-4.8-5.1
		c-15.3-6.1-30.6-12.3-45.9-18.5c-1.1-0.4-2.9-0.5-2.7-2c0.1-1.2,1.8-1.2,2.8-1.5c8.1-2.5,16.3-4.9,24.4-7.4c2-0.6,3.8-0.5,5.8,0.3
		c7.4,3,15,5.7,22.3,8.8c2.4,1,3.8,0.6,5.2-1.7c4.1-6.7,8.5-13.3,12.8-19.9c1-1.6,2-3.1,4-3.7c8.8-3,17.5-6,26.3-9
		C708.1,655.7,708.7,655.7,709.6,655.5z"/>
	<path d="M293.3,501.5c-0.8,8.6-4.3,15.5-10.6,21.6c-11,10.6-25.3,14.9-38.3,21.5c-13.7,6.9-28.1,12.6-41.5,20.2
		c-3.5,1.9-7.3,3.2-11,4.8c-2.8,1.2-5.2,0.9-6.6-2.2c-1-2.3-2.3-1.9-4.2-1c-7.1,3.5-8.5,3-11.8-4c-3.8-8.2-7.4-16.4-11.3-24.6
		c-1.7-3.5-0.9-5.7,2.5-7.2c1.5-0.7,2.9-1.6,4.4-2.2c2.8-1.2,4.8-2.6,3.4-6.2c-0.8-1.9,1.1-2.9,2.4-3.8c6.3-4.1,13.1-7.3,20-10.4
		c19-8.6,38.1-17.1,57.2-25.7c5.3-2.4,10.8-4.1,16.4-5.3c8.6-1.8,21.9,3.6,26.8,15.1C292.2,495.1,293.3,498.1,293.3,501.5z
		 M288.9,501.7c0.1-7-6.3-16.3-12.8-18.5c-2.9-1-5.8-2.6-9-2.1c-5.6,0.9-11,2.2-16.2,4.5c-10.1,4.6-20.3,9.2-30.5,13.6
		c-2.7,1.2-3.2,2.3-1.9,5.1c5.7,11.7,11.3,23.4,16.7,35.3c1.4,2.9,2.8,3.2,5.5,1.8c8.2-4,16.5-7.9,24.7-11.8
		c5.8-2.8,10.8-6.8,15.6-11C286,514,287.9,507.7,288.9,501.7z M187.8,514.2c-4.6,2.1-9.5,4.3-13.9,7.4c-0.8,0.6-0.7,1.5-0.4,2.4
		c0.9,3.3-0.5,5.2-3.4,6.6c-2.1,1-4.2,2.2-6.3,3.2c-1.5,0.8-1.9,1.8-1.2,3.3c3.8,8.1,7.6,16.3,11.4,24.4c0.9,2,2.3,2.4,4.2,1.3
		c1-0.6,2-1,3-1.5c2.9-1.7,5.3-1.4,6.7,1.8c0.9,2,2.3,2.2,4.3,1.5c5.7-2,10.8-5.1,16-8.2c1.4-0.8,1.4-1.8,0.8-3.1
		c-6.2-12.5-12.4-25-18.7-37.6C189.9,515,189.4,513.9,187.8,514.2z M199.9,508.7c-1.3,0.6-2.9,1.3-4.5,1.9c-1.6,0.6-2,1.6-1.2,3.2
		c6.3,12.6,12.6,25.3,18.9,38c0.8,1.6,1.7,2,3.3,1.1c1.2-0.7,2.4-1.3,3.7-1.8c1.7-0.7,1.8-1.8,1-3.3c-6.2-12.4-12.4-24.8-18.6-37.2
		C201.9,509.7,201.5,508.8,199.9,508.7z M232.4,544.1c-0.4-0.8-0.7-1.7-1.1-2.4c-3.9-8.2-7.7-16.3-11.6-24.4
		c-1.9-4.1-3.9-8.1-5.9-12.2c-1.6-3.3-3.6-0.9-5.3-0.2c-1.5,0.6-3.6,1-2.3,3.6c6.3,12.5,12.6,25.1,18.8,37.6
		c0.6,1.3,1.5,2.1,2.9,1.3C229.7,546.4,231.8,546.3,232.4,544.1z"/>
	<path d="M259.4,235.9c6.6,0.2,11.1,4.5,10.9,10.4c-0.3,5.9-4.8,10.5-10.3,10.2c-5.9-0.3-10.3-5.1-10.1-10.9
		C250.2,240.2,254.5,235.8,259.4,235.9z"/>
	<path d="M516.7,557.8c-0.1,4.2-4.3,8.2-8.8,8.2s-8.5-4.7-8.4-9.8c0.1-3.9,5.1-9.1,8.7-9C512.2,547.4,516.8,553,516.7,557.8z"/>
	<path d="M387.1,454.3c0,4.4-4.2,8.6-8.4,8.5c-3.4-0.1-6.3-3.4-6.2-7.2c0.1-4,4.4-9,7.7-8.9C383.9,446.8,387.1,450.5,387.1,454.3z"
		/>
	<path d="M334.7,543.5c0.1,4.2-3.5,8.1-7.6,8.2c-3.5,0.1-7-3.4-7.1-7.3c-0.2-3.4,3.9-7.8,7.2-7.8
		C331.1,536.7,334.7,539.9,334.7,543.5z"/>
	<path d="M79.8,347.5c0,6.7-0.3,13.5,0.6,20.2c0.1,1,0.6,2.4-0.6,3c-1,0.5-1.8-0.5-2.6-1c-11-7.8-22-15.6-33.1-23.3
		c-1.7-1.2-2.3-2.6-2.4-4.7c-0.3-10.6,0.8-21.2,1.9-31.8c0.4-4.2,1-4.3,4.5-2c9.5,6.3,18.9,12.7,28.4,18.9c2.6,1.7,3.7,3.7,3.5,6.8
		C79.7,338.3,79.8,342.9,79.8,347.5z"/>
	<path d="M83.2,303.6c-1.1,4.1-1.8,9.5-2.5,14.8c-0.3,2.5-1.2,2.7-3.1,1.4c-1.7-1.2-3.5-2.4-5.3-3.5c-8-5.4-15.9-10.8-23.9-16.1
		c-2.3-1.5-3.2-3.1-2.3-5.9c1.4-4.4,2.5-8.9,3.7-13.4c0.7-2.7,1.6-3.3,4-1.5c9.1,6.6,18.3,13.1,27.4,19.6
		C82.5,299.8,83.8,300.6,83.2,303.6z"/>
	<path d="M92.4,272.2c-1.6,4.9-3.2,10.1-4.9,15.4c-0.5,1.6-1.7,1.2-2.7,0.5c-9.5-6.6-19.1-13.3-28.6-19.9c-1.3-0.9-1.8-2-1.3-3.5
		c1.7-4.7,3.3-9.4,5-14.1c0.8-2.1,2-2.2,3.7-0.9c9,6.6,18,13,27,19.6C91.6,269.8,92.5,270.5,92.4,272.2z"/>
	<path d="M124.3,345.7c-0.3,1.7,0.5,3.3-0.8,4c-1.3,0.7-2.3-0.7-3.3-1.4c-8.4-5.6-16.8-11.4-25.2-17c-2.1-1.4-3-3-2.9-5.6
		c0.1-4.8,0.1-9.5,1-14.2c0.4-2.5,1.2-3.8,3.9-1.8c8,5.8,16.1,11.4,24.2,17.1c1.4,1,2.4,2.1,2.3,4
		C123.4,336,123.2,341.2,124.3,345.7z"/>
	<path d="M103.2,278.5c0.6,0.4,1.4,0.8,2.1,1.3c6.8,4.9,13.5,9.9,20.3,14.7c2,1.4,2.6,2.9,1.9,5.4c-1.1,4.1-1.7,8.3-2.4,12.5
		c-0.4,2.5-1.2,3.3-3.6,1.6c-7.6-5.5-15.3-10.8-23-16.2c-1.5-1-2.3-2.3-1.7-4.1c1.4-4.4,2.8-8.8,4.2-13.2
		C101.4,279.5,101.8,278.5,103.2,278.5z"/>
	<path d="M51.2,411.5c-1.2,0.2-2.2-0.4-2.5-1.9c-2.1-7.6-3.5-15.3-4.2-23.2c-0.2-2.8,1.6-1.5,2.6-0.7c4.4,3,8.8,6.2,13.2,9.3
		s8.8,6.1,13.2,9.2c1.2,0.9,2.5,2.1-0.1,2.7C66.1,408.5,58.8,409.9,51.2,411.5z"/>
	<path d="M42.2,361.7c0,0.2-0.7-1,0.5-1.6c1-0.4,1.6,0.4,2.3,0.9c11.4,7.9,22.9,15.7,34.3,23.6c2.4,1.7,4.5,7.3,3.7,10
		c-0.6,2.1-1.8,0.5-2.5,0.1c-5.5-3.7-11-7.4-16.5-11.1c-5.8-4-11.4-8.1-17.4-11.8C43.1,369.6,41.9,366.7,42.2,361.7z"/>
	<path d="M80.7,405.5c-1.8,0.1-3-0.9-4.2-1.7c-9.9-6.8-19.7-13.8-29.7-20.4c-3.8-2.5-3.7-6-3.6-9.5c0-2.4,1.8-0.9,2.6-0.3
		c5.4,3.6,10.8,7.3,16.1,11c6.5,4.5,13,8.9,19.5,13.4c0.6,0.4,1.2,0.9,1.8,1.4c1.3,1.3,1.5,3,1.1,4.5
		C83.9,405.5,81.9,405.1,80.7,405.5z"/>
	<path d="M41.9,352c0-1.1-0.7-2.8,0.4-3.5c1.4-0.8,2.5,0.8,3.5,1.5c10.5,7.4,20.9,14.9,31.5,22.2c2.9,2,4.2,4.4,3.9,7.8
		c-0.1,0.8,0.4,1.9-0.7,2.3c-1.1,0.4-1.9-0.5-2.7-1.1c-8.6-5.9-17.3-11.9-25.9-17.8c-2.2-1.5-4.3-3.1-6.5-4.5
		C42.9,357.4,41,355.5,41.9,352z"/>
	<path d="M91.4,346c0.3-2.2-1.3-6.2,0.7-7.3c2.5-1.4,4.8,2.2,7.2,3.7c4.5,2.7,8.8,5.8,13.1,8.8c0.7,0.5,1.8,0.8,1.3,2
		c-0.3,0.8-1.3,0.6-2,0.7c-5.6,0.6-11.2,1-16.8,1.7c-2.8,0.4-3.6-0.8-3.5-3.3C91.4,350.3,91.4,348.4,91.4,346z"/>
	<path d="M681.8,252.7c-4.8,0.1-8.2-3.7-8.1-9.2c0-4.7,4-9.3,8-9.3c4.2,0,9.5,5.4,9.5,9.6C691,248.7,686.8,252.7,681.8,252.7z"/>
	<path d="M569.7,444.8c-0.2,4.6,0.3,9.6-0.7,14.5c-0.6,2.9-2,4.6-4.8,5.6c-20.5,7.6-41.6,12.4-63.4,14.3
		c-13.5,1.2-10.9-0.8-11.7-10.4c-0.3-3.6-0.2-7.3-0.2-10.9c0-2.8,1.2-4.7,3.9-5.8c9.6-4,19.2-8,29.1-11.1c11.5-3.6,22.3-9,33.4-13.4
		c2.4-1,4.9-1.9,7.4-2.6c3.5-1,5.8,0.7,6.3,4.3C569.8,434.4,569.7,439.4,569.7,444.8z M493.7,465.5c0,0.5,0,1,0,1.5
		c0.1,8.9,0.1,8.6,9.1,7.6c18.9-2,37.4-5.8,55.4-12.3c6.1-2.2,7.2-3,7.2-9.5c0-6.6-0.5-13.2-0.6-19.9c0-3-1.1-3.8-3.9-2.6
		c-19.3,8.9-39.8,14.8-59.4,23.1C492.1,457.5,493.8,454.9,493.7,465.5z"/>
	<path d="M673.1,402.6c2.1,7.6-2.3,14.1-7.8,20c-7.2,7.8-14.7,15.4-22.1,23c-0.8,0.8-1.7,1.5-2.6,2.2c-1.2,0.8-2.1,2.4-3.9,1.3
		c-1.5-0.9-1.6-2.5-1.4-4c0.8-8.4,0.9-16.7,0.7-25.1c-0.1-4.1-0.5-8.2-0.7-12.3c-0.2-3,1.2-5,4-6.1c9.5-3.8,19-7.7,28.5-11.4
		c3.9-1.5,5-0.7,5.3,3.4C673.3,396.2,673.1,398.8,673.1,402.6z M640.2,441.8c3.5-2.5,5.3-5.4,7.7-7.7c6.8-6.5,13.4-13,19-20.5
		c1-1.3,1.5-2.5,1.5-4.1c0-3.8-0.1-7.5,0-11.3c0.1-2.7-0.8-3.4-3.3-2.3c-5.5,2.3-11.2,4.4-16.7,6.6c-8.5,3.4-8.4,3.4-8.3,12.5
		C640.3,423.8,640.2,432.4,640.2,441.8z"/>
	<path d="M616.4,425.8c0.1,8.8-1.2,17.5-1.6,26.2c-0.1,1.5-0.5,2.9-2,3.3c-5.1,1.4-9.8,3.9-15.1,4.5c-5.2,0.6-6.7-1-6.2-6.3
		c1.1-10.1,1.2-20.2,0.9-30.4c-0.1-3.9,1.3-6.1,4.9-7.4c3.8-1.4,7.3-3.2,11.1-4.6c5.4-2.1,8.2,0,8,5.7
		C616.3,419.8,616.4,422.8,616.4,425.8z M596.7,434.3c0.3,6-0.5,12-0.7,18c-0.1,2.3,0.6,3.2,3,2.7c3.2-0.7,6.3-1.6,9.2-3
		c1.5-0.7,2.2-1.7,2.4-3.4c0.8-9.7,1.6-19.4,1.5-29.1c-0.1-4.8-0.1-4.8-4.6-3.2c-10.8,4-10.8,4-10.8,15.5
		C596.7,432.5,596.7,433.4,596.7,434.3z"/>
	<path d="M418.3,372.4c-19.5-1.7-34.9-10.3-44.9-27.5c-2.8-4.8-4.7-9.9-6.6-15.1c-0.8-2.2-2-3.2-4.4-3c-3,0.2-6,0.2-9,0.4
		c-5,0.3-6.9-1.6-6.3-6.7c1-8.9,3.4-17.5,7.3-25.5c6.6-13.5,16-24.9,28.7-33c5.6-3.6,12-6.3,18.1-8.9c5.2-2.2,9.3,0,9.3,5.4
		c0,7.3,3,10,10.2,11.4c12.6,2.5,23.9,8.8,32.9,17.9c17,17.3,19.4,41.8,6,61c-8.5,12.2-19.7,20.5-34.5,23.5
		c-0.6,0.1-1.2,0.3-1.9,0.3C421.6,372.4,420,372.4,418.3,372.4z M463.5,320.6c0.1-5.2-0.9-10.6-3.4-15.8
		c-9.2-18.9-25.7-27.6-45.1-32.1c-6.5-1.5-7.5-2-7.9-8.7c-0.6-8.1-1-8.2-8.7-5.2c-17.9,7-30.6,19.7-39.5,36.3
		c-3.7,7-5.8,14.6-7,22.5c-0.7,4.4-0.1,4.8,4.2,4.8c2.4,0,4.8,0.2,7.1-0.1c4-0.5,6.2,1,7.4,5c1.7,5.5,3.9,10.9,6.8,15.8
		c9,15.2,22.6,23.6,40,25C437,369.8,464.5,348.3,463.5,320.6z"/>
</g>
<path class="st1" d="M62.3,626.5c-10.8,0.5-22.8-5.2-22.8-5.2"/>
<line class="st1" x1="71.8" y1="620.5" x2="88.2" y2="611.3"/>
<line class="st1" x1="65.2" y1="611.3" x2="88.2" y2="600.7"/>
<line class="st1" x1="639.5" y1="530.8" x2="620.4" y2="527.2"/>
<line class="st1" x1="642.8" y1="520.4" x2="622.8" y2="518"/>
<line class="st1" x1="352" y1="602.6" x2="348.7" y2="588.8"/>
<line class="st1" x1="530.3" y1="573.4" x2="528.6" y2="562.7"/>
<line class="st1" x1="164.7" y1="622.2" x2="164.7" y2="604.8"/>
<path class="st1" d="M360.1,543.2c7.3-5.2,14.5-10.3,21.8-15.5"/>
<path class="st1" d="M184,519.6c12.1-6.9,31-15.1,45.8-21.2"/>
<path class="st1" d="M246.6,534.6c-16.8,8.9-29.8,15-44.8,22.1"/>
<path class="st1" d="M171.5,533.4c-5.9,3-13.6,6.1-19.5,9.1"/>
<path class="st1" d="M280.9,476.5c-5.9,3-18.3,7.2-24.2,10.2"/>
<path class="st1" d="M302.5,498.2c-5.9,3-17.4,14.5-23.3,17.5"/>
<path class="st1" d="M182.3,557.3c-5.9,3-12.7,7.3-18.7,10.3"/>
<path class="st1" d="M633.1,473.4c-2.7,3.6-2.4,4.5-6.4,8.3c-2.8,2.6-1.7,3.8-2.1,12.4c-0.2,4.6-0.1,11,1,18.6"/>
<line class="st1" x1="634.2" y1="472.8" x2="650.4" y2="454.9"/>
<line class="st1" x1="687.7" y1="370" x2="693.4" y2="297.3"/>
<line class="st1" x1="411.6" y1="428.7" x2="392.2" y2="484.6"/>
<line class="st1" x1="390.4" y1="434.5" x2="411.6" y2="447.2"/>
<polyline class="st1" points="710.3,249.4 714.5,264.6 703.2,285.7 "/>
<path class="st1" d="M55,545c2.9,6.6,10.1,23,11.4,31.2c1,6.2,1.3,8.8,8.7,18.8"/>
<line class="st1" x1="229" y1="414.6" x2="265.2" y2="396"/>
<line class="st1" x1="242.4" y1="422.2" x2="282.8" y2="402.2"/>
<line class="st1" x1="247.1" y1="287.7" x2="284.3" y2="306.6"/>
<line class="st1" x1="215.3" y1="287.7" x2="252.5" y2="306.6"/>
<line class="st1" x1="215.3" y1="286.2" x2="253.3" y2="306.1"/>
<path class="st1" d="M56.2,177.4c3.7-6.8,9.7-15.2,15.9-23.6c5.6-7.6,14-18.4,18.8-24.1"/>
<line class="st1" x1="157.2" y1="95.1" x2="141.3" y2="114.3"/>
<line class="st1" x1="300.2" y1="215.5" x2="320.7" y2="227.8"/>
<path class="st1" d="M700.8,218.9c-2.1-5.5-2.4-12.5-5.1-18.5c-2.7-5.9-5.3-12.3-9.8-15.9"/>
<path class="st2" d="M531,229.4c-0.9-1.1-12-8.8-16-10.1c-4.4-1.4-8.2-0.3-9.4,0.1"/>
<line class="st1" x1="520.7" y1="222.3" x2="526.5" y2="213"/>
<path class="st1" d="M532.6,206"/>
<path class="st1" d="M666.4,175.9l11.3,14.3L666.4,175.9z"/>
<path class="st1" d="M462.5,246.8c-2.6-1.2-11-5.7-14.8-7c-1.8-0.6-5.8-1.5-11.3-2.6c-3-0.6-6.8-1-10.9-1.3"/>
<path class="st1" d="M330.4,336c1,4.9,3.1,13.4,5.1,19.1c4.1,11.9,8.7,18.4,13.6,25.9"/>
<line class="st1" x1="447.8" y1="339.8" x2="484" y2="365.7"/>
<path class="st1" d="M354.6,343.7c-1.7-7.7-2.7-18.5,2.3-33.4c2.5-7.4,6.7-23.2,24.9-37c21.3-16.1,38.8-19,45.1-18.8"/>
<path class="st3" d="M413.9,651.2c37.7-6.7,92.9-19.4,118.2-25.8c13.2-3.3,69.5-18.5,135.1-41.4c11.3-3.9,9.4-18,8.2-31.6"/>
<line class="st1" x1="69.6" y1="152.7" x2="55" y2="143.7"/>
<path class="st3" d="M144.1,91.5l14.6,6.3L144.1,91.5z"/>
<line class="st3" x1="669.8" y1="181.3" x2="689.8" y2="170.4"/>
<line class="st1" x1="683.8" y1="403.3" x2="686.8" y2="445.1"/>
<line class="st2" x1="66.4" y1="577.3" x2="39.4" y2="579.3"/>
<line class="st4" x1="643.9" y1="430.5" x2="642.3" y2="453.3"/>
<line class="st4" x1="608" y1="442.6" x2="607.3" y2="462.3"/>
<line class="st4" x1="561.6" y1="433.5" x2="563" y2="473.9"/>
</svg>
