<?xml version="1.0" encoding="UTF-8"?>
<svg xmlns="http://www.w3.org/2000/svg" version="1.1" viewBox="0 0 720 720">
  <defs>
    <style>
      .cls-1 {
        fill: #de9400;
      }
    </style>
  </defs>
  <!-- Generator: Adobe Illustrator 28.6.0, SVG Export Plug-In . SVG Version: 1.2.0 Build 709)  -->
  <g>
    <g id="Layer_3">
      <polygon class="cls-1" points="126 486 126 282.7 24.3 384.3 126 486"/>
      <polygon class="cls-1" points="594 282.7 594 486 695.7 384.3 594 282.7"/>
      <polygon class="cls-1" points="360 720 486 594 234 594 360 720"/>
      <path class="cls-1" d="M396.9,111.1h0c4.9,5.9,10.9,12.1,20.3,14.9,8.3,2.5,15.9,1.2,20.3,0-25.8-25.8-51.6-51.5-77.5-77.3,0,0,0,0,0,0h0s0,0,0,0c0,0,0,0,0,0-25.8,25.8-51.6,51.5-77.5,77.3,4.5,1.2,12,2.5,20.3,0,9.4-2.8,15.3-8.9,20.3-14.9h0s-17.2,29.2-17.2,29.2c-1.3,2.3-3.8,3.7-6.5,3.7h-155.5v432h432V144h-155.6c-2.6,0-5-1.4-6.3-3.6l-17.3-29.3ZM360,86.1l34.2,57.9h-68.5l34.2-57.9ZM558,162v396H162V162h131.1l-122.1,207h0s15.7,10.1,15.7,10.1l126.3-213.6c1.3-2.2,3.6-3.5,6.1-3.5h81.7c2.5,0,4.8,1.3,6.1,3.5l126.3,213.7,15.7-10.1h0s-122.1-207-122.1-207h131.1Z"/>
    </g>
  </g>
</svg>
