<?xml version="1.0" encoding="utf-8"?>
<!-- Generator: Adobe Illustrator 24.1.3, SVG Export Plug-In . SVG Version: 6.00 Build 0)  -->
<svg version="1.1" id="Layer_1" xmlns="http://www.w3.org/2000/svg" xmlns:xlink="http://www.w3.org/1999/xlink" x="0px" y="0px"
	 viewBox="0 0 1000 1000" style="enable-background:new 0 0 1000 1000;" xml:space="preserve">
<style type="text/css">
	.st0{stroke:#FFFFFF;stroke-width:5;stroke-miterlimit:10;}
</style>
<g>
	<path d="M395,512.3c0-63.3,0-126.4,0-189.8c1.5,0,2.8,0,4.1,0c20.7,0,41.5-0.1,62.2,0c2.6,0,4.1-0.8,5.2-3.1c1.5-3.1,3.4-6,4.9-9.5
		c-4.7,6.1-10.6,8.5-17.3,6.6c12-11.9,24.3-24.1,36.2-35.9c11.4,11.4,23.6,23.6,35.8,35.7c-7.1,2-13.1-0.2-17.4-7
		c-0.2,0.3-0.5,0.6-0.7,0.9c2.2,3.8,4.3,7.7,6.7,11.3c0.5,0.8,2.4,0.8,3.7,0.8c20.6,0,41.2,0,61.8,0c1.3,0,2.7,0,4.3,0
		c0,63.3,0,126.5,0,189.8C521.5,512.3,458.5,512.3,395,512.3z M566,427.2c-0.6-0.9-1.1-1.5-1.5-2.3c-17.5-30.4-35.1-60.8-52.6-91.2
		c-1.2-2.1-2.4-3-4.9-3c-11.4,0.2-22.8,0.2-34.3,0c-2.5,0-3.7,0.9-4.9,2.9c-12.7,22.2-25.4,44.3-38.2,66.4c-5.2,9-10.4,18-15.8,27.2
		c-2.4-1.4-4.6-2.7-7-4.1c17.8-30.8,35.4-61.4,53.1-92.1c-19.3,0-37.9,0-56.7,0c0,57.8,0,115.4,0,173.1c57.8,0,115.4,0,173.1,0
		c0-57.9,0-115.5,0-173.1c-18.9,0-37.5,0-56.5,0c17.8,30.9,35.5,61.5,53.2,92.1C570.4,424.7,568.3,425.9,566,427.2z M505.5,322.6
		c-5.4-9.3-10.4-18-15.6-27c-5.3,9.2-10.3,17.9-15.5,27C485,322.6,494.9,322.6,505.5,322.6z"/>
	<path d="M546.9,518.5c-19.2,19.2-38.1,38.1-56.8,56.8c-18.8-18.8-37.7-37.8-56.7-56.8C470.9,518.5,508.8,518.5,546.9,518.5z"/>
	<path d="M342.7,427.9c15.5-15.5,31-31.1,46.4-46.6c0,30.9,0,62,0,93.1C373.4,458.7,357.9,443.1,342.7,427.9z"/>
	<path d="M590.6,474c0-30.9,0-62,0-92.6c15.3,15.5,30.9,31.1,46.2,46.5C622,442.8,606.3,458.4,590.6,474z"/>
</g>
<polyline class="st0" points="395,322.5 403.3,331.1 411.5,339.3 "/>
<polyline class="st0" points="584.6,322.5 576.4,331.1 568.5,339 "/>
<polyline class="st0" points="584.6,512.4 576.4,504.2 568.2,496 "/>
<polyline class="st0" points="395,512.3 403.3,504.2 416.6,490.9 "/>
<line class="st0" x1="489.9" y1="320.8" x2="489.9" y2="336.3"/>
</svg>
