<?xml version="1.0" encoding="UTF-8"?>
<svg id="Layer_1" xmlns="http://www.w3.org/2000/svg" version="1.1" viewBox="0 0 751.25 430.47">
  <!-- Generator: Adobe Illustrator 29.8.2, SVG Export Plug-In . SVG Version: 2.1.1 Build 3)  -->
  <defs>
    <style>
      .st0 {
        fill: #de9400;
      }
    </style>
  </defs>
  <path class="st0" d="M448.31,430.17v-96.83c.81-.17,1.64-.28,2.47-.34,19.6,0,39.2-.14,58.8,0,14.41-.02,26.12,11.65,26.13,26.07,0,2.59-.38,5.17-1.13,7.64-2.66,9.08-8.79,15-17.91,17.79-1.06.32-2.14.59-3.21.89-.09,0-.15.15-.38.4l22.56,44.66c-6.53,0-12.42.1-18.29-.1-.86,0-2-1.36-2.45-2.34-5.35-10.34-10.73-20.67-15.84-31.13-3.72-7.62-9.48-11.44-18-11.18-5.06.15-10.13,0-15.51,0v44.47h-17.24ZM465.56,368.08c15.27,0,30.37.23,45.46-.13,5.16-.12,8.47-6.17,6.91-11.08-1.33-4.23-4.65-6.56-9.69-6.57-13.28-.05-26.55,0-39.83,0-.94,0-1.89.17-2.85.26v17.52Z"/>
  <path class="st0" d="M200.02,399.52c5.07,0,9.89-.12,14.7.11.87,0,2.13,1.42,2.43,2.41,2.17,7.35,6.44,10.76,14,10.79h29c8.13,0,14-5.55,14.07-13.2.1-7.46-5.78-13.32-13.89-13.43-11.54-.16-23.08,0-34.61-.1-10.67-.11-18.59-5.11-23.27-14.55s-3.86-19.07,2.3-27.79c4.78-6.77,11.53-10.56,19.87-10.67,14-.19,28.05-.24,42.06,0,13.75.25,25.23,12.7,24.48,26.74-5.08,0-10.23.06-15.36-.09-.6,0-1.53-1.13-1.7-1.88-1.06-4.64-4.07-7.25-8.62-7.32-13.28-.21-26.56-.26-39.83,0-4.79-.07-8.73,3.75-8.8,8.54,0,.2,0,.41.01.61.09,5.39,3.79,9,9.72,9,11.54.11,23.08-.1,34.61.09,16.92.18,30.49,14.05,30.3,30.97-.05,4.92-1.29,9.75-3.6,14.09-5.35,10-14,15.82-25.41,16.22-11.28.4-22.59.41-33.87,0-16.22-.54-29.86-15.12-28.59-30.54Z"/>
  <path class="st0" d="M734.01,394.96v-61.66h17.24v97l-79.38-61.33v61.2h-17.53v-96.7l79.67,61.49Z"/>
  <path class="st0" d="M140.01,430.27c-26.08.33-48-21.59-48.29-48.34-.31-26.23,21.34-48.5,47.46-48.83,27.34-.35,49.54,21,49.81,48,.27,27.22-21.22,48.81-48.98,49.17ZM140.08,412.95c17.3.18,31.48-13.7,31.66-31,.18-17.3-13.7-31.48-31-31.66-17.3-.18-31.48,13.7-31.66,31,0,.09,0,.17,0,.26-.12,17.23,13.75,31.28,30.98,31.4,0,0,.01,0,.02,0h0Z"/>
  <path class="st0" d="M594.7,430.22c-26.82-.09-48.49-21.92-48.4-48.74.09-26.82,21.92-48.49,48.74-48.4,26.82.09,48.49,21.92,48.4,48.74,0,.04,0,.09,0,.13-.04,26.7-21.73,48.31-48.43,48.27-.1,0-.21,0-.31,0ZM594.78,412.94c17.3.1,31.4-13.84,31.5-31.14.1-17.3-13.84-31.4-31.14-31.5-17.3-.1-31.4,13.84-31.5,31.14,0,.1,0,.2,0,.3.05,17.19,13.95,31.12,31.14,31.2h0Z"/>
  <path class="st0" d="M17.05,385.47v44.46H.05v-96.6c.79-.17,1.59-.28,2.4-.33,19.47,0,39-.12,58.43,0,16.1.13,27.35,12.51,26.29,28.58-.87,13.16-12.34,23.77-25.89,23.84-13.27.07-26.55,0-39.82,0l-4.41.05ZM17.18,368.05c15.29,0,30.39.19,45.48-.11,4.53-.09,7.76-5.12,7.2-9.71-.58-4.81-4.21-7.92-9.64-7.94-13.64-.07-27.3,0-41,0-.7.05-1.4.15-2.09.31l.05,17.45Z"/>
  <path class="st0" d="M376.94,350.38h-39.84v-17.11h96.72v16.9c-1.24.06-2.55.18-3.86.18-10.67,0-21.35.13-32-.06-3.18-.06-3.92,1-3.9,4,.11,23.71.06,47.42.06,71.13v4.75h-17.18v-79.79Z"/>
  <path class="st0" d="M305.79,333.24h16.85v96.7h-16.85v-96.7Z"/>
  <g id="Layer_3">
    <polygon class="st0" points="262.54 191.37 262.54 102.54 218.1 146.93 262.54 191.37"/>
    <polygon class="st0" points="467.03 102.54 467.03 191.37 511.47 146.93 467.03 102.54"/>
    <polygon class="st0" points="364.78 293.62 419.84 238.56 309.73 238.56 364.78 293.62"/>
    <path class="st0" d="M380.91,27.56h0c2.14,2.58,4.76,5.29,8.87,6.51,3.63,1.09,6.95.52,8.87,0-11.27-11.27-22.55-22.5-33.86-33.78h0c-11.27,11.27-22.55,22.5-33.86,33.78,1.97.52,5.24,1.09,8.87,0,4.11-1.22,6.69-3.89,8.87-6.51h0l-7.52,12.76c-.57,1.01-1.66,1.62-2.84,1.62h-67.95v188.77h188.77V41.93h-67.99c-1.14,0-2.18-.61-2.75-1.57l-7.56-12.8h.09ZM364.78,16.63l14.94,25.3h-29.93l14.94-25.3h.04ZM451.3,49.8v173.04h-173.04V49.8h57.29l-53.35,90.45h0l6.86,4.41,55.19-93.33c.57-.96,1.57-1.53,2.67-1.53h35.7c1.09,0,2.1.57,2.67,1.53l55.19,93.38,6.86-4.41h0l-53.35-90.45h57.29l.04-.04Z"/>
  </g>
</svg>
