<?xml version="1.0" encoding="UTF-8" standalone="no"?>
<!-- Created with Inkscape (http://www.inkscape.org/) -->

<svg
   width="180mm"
   height="180mm"
   viewBox="0 0 180 180"
   version="1.1"
   id="svg5"
   xml:space="preserve"
   inkscape:version="1.3.2 (091e20e, 2023-11-25, custom)"
   sodipodi:docname="180x180 Positron V3-2 Texture - Text Editable.svg"
   xmlns:inkscape="http://www.inkscape.org/namespaces/inkscape"
   xmlns:sodipodi="http://sodipodi.sourceforge.net/DTD/sodipodi-0.dtd"
   xmlns="http://www.w3.org/2000/svg"
   xmlns:svg="http://www.w3.org/2000/svg"><sodipodi:namedview
     id="namedview7"
     pagecolor="#ffffff"
     bordercolor="#666666"
     borderopacity="1.0"
     inkscape:pageshadow="2"
     inkscape:pageopacity="0.0"
     inkscape:pagecheckerboard="0"
     inkscape:deskcolor="#d1d1d1"
     inkscape:document-units="mm"
     showgrid="false"
     inkscape:zoom="5.6568542"
     inkscape:cx="528.7391"
     inkscape:cy="685.54003"
     inkscape:window-width="2542"
     inkscape:window-height="1328"
     inkscape:window-x="1281"
     inkscape:window-y="16"
     inkscape:window-maximized="0"
     inkscape:current-layer="layer1"
     inkscape:showpageshadow="2" /><defs
     id="defs2"><marker
       id="DistanceX"
       orient="auto"
       refX="0"
       refY="0"
       style="overflow:visible"><path
         d="M 3,-3 -3,3 M 0,-5 V 5"
         style="stroke:#000000;stroke-width:0.5"
         id="path184" /></marker><pattern
       id="Hatch"
       patternUnits="userSpaceOnUse"
       width="8"
       height="8"
       x="0"
       y="0"><path
         d="M8 4 l-4,4"
         stroke="#000000"
         stroke-width="0.25"
         linecap="square"
         id="path187" /><path
         d="M6 2 l-4,4"
         stroke="#000000"
         stroke-width="0.25"
         linecap="square"
         id="path189" /><path
         d="M4 0 l-4,4"
         stroke="#000000"
         stroke-width="0.25"
         linecap="square"
         id="path191" /></pattern><symbol
       id="*Model_Space" /><symbol
       id="*Paper_Space" /><symbol
       id="*Paper_Space0" /><marker
       id="DistanceX-8"
       orient="auto"
       refX="0"
       refY="0"
       style="overflow:visible"><path
         d="M 3,-3 -3,3 M 0,-5 V 5"
         style="stroke:#000000;stroke-width:0.5"
         id="path781" /></marker><pattern
       id="Hatch-2"
       patternUnits="userSpaceOnUse"
       width="8"
       height="8"
       x="0"
       y="0"><path
         d="M8 4 l-4,4"
         stroke="#000000"
         stroke-width="0.25"
         linecap="square"
         id="path784" /><path
         d="M6 2 l-4,4"
         stroke="#000000"
         stroke-width="0.25"
         linecap="square"
         id="path786" /><path
         d="M4 0 l-4,4"
         stroke="#000000"
         stroke-width="0.25"
         linecap="square"
         id="path788" /></pattern><symbol
       id="*Model_Space-9" /><symbol
       id="*Paper_Space-7" /><symbol
       id="*Paper_Space0-7" /><marker
       id="DistanceX-3"
       orient="auto"
       refX="0"
       refY="0"
       style="overflow:visible"><path
         d="M 3,-3 -3,3 M 0,-5 V 5"
         style="stroke:#000000;stroke-width:0.5"
         id="path2541" /></marker><pattern
       id="Hatch-3"
       patternUnits="userSpaceOnUse"
       width="8"
       height="8"
       x="0"
       y="0"><path
         d="M8 4 l-4,4"
         stroke="#000000"
         stroke-width="0.25"
         linecap="square"
         id="path2544" /><path
         d="M6 2 l-4,4"
         stroke="#000000"
         stroke-width="0.25"
         linecap="square"
         id="path2546" /><path
         d="M4 0 l-4,4"
         stroke="#000000"
         stroke-width="0.25"
         linecap="square"
         id="path2548" /></pattern><symbol
       id="*Model_Space-2" /><symbol
       id="*Paper_Space-1" /><symbol
       id="*Paper_Space0-8" /><pattern
       y="0"
       x="0"
       height="6"
       width="6"
       patternUnits="userSpaceOnUse"
       id="EMFhbasepattern" /><pattern
       y="0"
       x="0"
       height="6"
       width="6"
       patternUnits="userSpaceOnUse"
       id="EMFhbasepattern-6" /><pattern
       y="0"
       x="0"
       height="6"
       width="6"
       patternUnits="userSpaceOnUse"
       id="EMFhbasepattern-4" /><pattern
       y="0"
       x="0"
       height="6"
       width="6"
       patternUnits="userSpaceOnUse"
       id="EMFhbasepattern-6-1" /><marker
       id="DistanceX-5"
       orient="auto"
       refX="0.0"
       refY="0.0"
       style="overflow:visible"><path
         d="M 3,-3 L -3,3 M 0,-5 L  0,5"
         style="stroke:#000000; stroke-width:0.5"
         id="path1" /></marker><pattern
       id="Hatch-5"
       patternUnits="userSpaceOnUse"
       width="8"
       height="8"
       x="0"
       y="0"><path
         d="M8 4 l-4,4"
         stroke="#000000"
         stroke-width="0.25"
         linecap="square"
         id="path2" /><path
         d="M6 2 l-4,4"
         stroke="#000000"
         stroke-width="0.25"
         linecap="square"
         id="path3" /><path
         d="M4 0 l-4,4"
         stroke="#000000"
         stroke-width="0.25"
         linecap="square"
         id="path4" /></pattern><symbol
       id="*MODEL_SPACE" /><symbol
       id="*PAPER_SPACE" /></defs><g
     inkscape:label="Layer 1"
     inkscape:groupmode="layer"
     id="layer1"><path
       style="fill:none;stroke:#b3b3b3;stroke-width:0.661458;stroke-dasharray:none"
       d="M 0,180 H 180"
       id="path2564"
       sodipodi:nodetypes="cc" /><path
       style="fill:none;stroke:#b3b3b3;stroke-width:0.661458;stroke-dasharray:none"
       d="M 180,0 V 180"
       id="path2578"
       inkscape:label="MajorGrid1"
       sodipodi:nodetypes="cc" /><g
       inkscape:label="Layer 1"
       id="g42"
       style="fill:#ff0000"
       transform="matrix(0.03050889,0,0,0.03050889,277.52078,154.56171)" /><g
       inkscape:label="AM_0"
       id="g43"
       style="fill:#ff0000"
       transform="matrix(0.03050889,0,0,0.03050889,277.52078,154.56171)" /><g
       inkscape:label="AM_1"
       id="g44"
       style="fill:#ff0000"
       transform="matrix(0.03050889,0,0,0.03050889,277.52078,154.56171)" /><g
       inkscape:label="AM_2"
       id="g45"
       style="fill:#ff0000"
       transform="matrix(0.03050889,0,0,0.03050889,277.52078,154.56171)" /><g
       inkscape:label="AM_3"
       id="g46"
       style="fill:#ff0000"
       transform="matrix(0.03050889,0,0,0.03050889,277.52078,154.56171)" /><g
       inkscape:label="AM_4"
       id="g47"
       style="fill:#ff0000"
       transform="matrix(0.03050889,0,0,0.03050889,277.52078,154.56171)" /><g
       inkscape:label="AM_5"
       id="g48"
       style="fill:#ff0000"
       transform="matrix(0.03050889,0,0,0.03050889,277.52078,154.56171)" /><g
       inkscape:label="AM_6"
       id="g49"
       style="fill:#ff0000"
       transform="matrix(0.03050889,0,0,0.03050889,277.52078,154.56171)" /><g
       inkscape:label="AM_7"
       id="g50"
       style="fill:#ff0000"
       transform="matrix(0.03050889,0,0,0.03050889,277.52078,154.56171)" /><g
       inkscape:label="AM_8"
       id="g51"
       style="fill:#ff0000"
       transform="matrix(0.03050889,0,0,0.03050889,277.52078,154.56171)" /><g
       inkscape:label="AM_9"
       id="g52"
       style="fill:#ff0000"
       transform="matrix(0.03050889,0,0,0.03050889,277.52078,154.56171)" /><g
       inkscape:label="AM_10"
       id="g53"
       style="fill:#ff0000"
       transform="matrix(0.03050889,0,0,0.03050889,277.52078,154.56171)" /><g
       inkscape:label="AM_11"
       id="g54"
       style="fill:#ff0000"
       transform="matrix(0.03050889,0,0,0.03050889,277.52078,154.56171)" /><g
       inkscape:label="AM_12"
       id="g55"
       style="fill:#ff0000"
       transform="matrix(0.03050889,0,0,0.03050889,277.52078,154.56171)" /><g
       inkscape:label="AM_0N"
       id="g56"
       style="fill:#ff0000"
       transform="matrix(0.03050889,0,0,0.03050889,277.52078,154.56171)" /><g
       inkscape:label="AM_1N"
       id="g57"
       style="fill:#ff0000"
       transform="matrix(0.03050889,0,0,0.03050889,277.52078,154.56171)" /><g
       inkscape:label="AM_2N"
       id="g58"
       style="fill:#ff0000"
       transform="matrix(0.03050889,0,0,0.03050889,277.52078,154.56171)" /><g
       inkscape:label="AM_3N"
       id="g59"
       style="fill:#ff0000"
       transform="matrix(0.03050889,0,0,0.03050889,277.52078,154.56171)" /><g
       inkscape:label="AM_4N"
       id="g60"
       style="fill:#ff0000"
       transform="matrix(0.03050889,0,0,0.03050889,277.52078,154.56171)" /><g
       inkscape:label="AM_5N"
       id="g61"
       style="fill:#ff0000"
       transform="matrix(0.03050889,0,0,0.03050889,277.52078,154.56171)" /><g
       inkscape:label="AM_6N"
       id="g62"
       style="fill:#ff0000"
       transform="matrix(0.03050889,0,0,0.03050889,277.52078,154.56171)" /><g
       inkscape:label="AM_7N"
       id="g63"
       style="fill:#ff0000"
       transform="matrix(0.03050889,0,0,0.03050889,277.52078,154.56171)" /><g
       inkscape:label="AM_8N"
       id="g64"
       style="fill:#ff0000"
       transform="matrix(0.03050889,0,0,0.03050889,277.52078,154.56171)" /><g
       inkscape:label="AM_9N"
       id="g65"
       style="fill:#ff0000"
       transform="matrix(0.03050889,0,0,0.03050889,277.52078,154.56171)" /><g
       inkscape:label="AM_10N"
       id="g66"
       style="fill:#ff0000"
       transform="matrix(0.03050889,0,0,0.03050889,277.52078,154.56171)" /><g
       inkscape:label="AM_11N"
       id="g67"
       style="fill:#ff0000"
       transform="matrix(0.03050889,0,0,0.03050889,277.52078,154.56171)" /><g
       inkscape:label="AM_12N"
       id="g68"
       style="fill:#ff0000"
       transform="matrix(0.03050889,0,0,0.03050889,277.52078,154.56171)" /><g
       inkscape:label="AM_CL"
       id="g69"
       style="fill:#ff0000"
       transform="matrix(0.03050889,0,0,0.03050889,277.52078,154.56171)" /><g
       inkscape:label="AM_PAREF"
       id="g70"
       style="fill:#ff0000"
       transform="matrix(0.03050889,0,0,0.03050889,277.52078,154.56171)" /><g
       inkscape:label="AM_BOR"
       id="g71"
       style="fill:#ff0000"
       transform="matrix(0.03050889,0,0,0.03050889,277.52078,154.56171)" /><g
       inkscape:label="AM_VIEWS"
       id="g72"
       style="fill:#ff0000"
       transform="matrix(0.03050889,0,0,0.03050889,277.52078,154.56171)" /><g
       inkscape:label="AM_INV"
       id="g73"
       style="fill:#ff0000"
       transform="matrix(0.03050889,0,0,0.03050889,277.52078,154.56171)" /><g
       id="g4"
       transform="matrix(0.09315735,0,0,0.09315735,95.812769,157.18782)"
       style="fill:#d4aa00">
	<path
   d="M 176.14,172.69 V 72.1 h 2.2 c 11,0 32.99,0.03 32.99,0.03 L 212.27804,72.1231 216.66,65.5 211.95467,69.065769 207.5,69.01 c 0,0 12.89,-12.76 19.19,-19 6.04,6.02 18.99,18.91 18.99,18.91 l -4.47438,-0.06938 -5.13562,-3.170625 3.8825,6.38625 L 241.61,72.1 c 0,0 21.86,0.02 32.78,0.02 h 2.31 v 100.59 c -33.45,-0.02 -66.92,-0.02 -100.56,-0.02 z m 90.7,-45.14 c -0.31,-0.47 -0.59,-0.81 -0.83,-1.2 -9.3,-16.1 -18.61,-32.19 -27.88,-48.32 -0.62,-1.09 -1.25,-1.59 -2.59,-1.58 -6.05,0.09 -12.11,0.09 -18.18,0 -1.33,-0.02 -1.98,0.47 -2.61,1.54 -6.73,11.75 -13.5,23.47 -20.27,35.19 -2.75,4.77 -5.54,9.52 -8.38,14.4 -1.3,-0.75 -2.47,-1.44 -3.74,-2.17 9.42,-16.34 18.77,-32.52 28.18,-48.81 h -30.07 v 91.72 h 91.82 v -91.7 h -29.97 c 9.49,16.43 18.83,32.59 28.21,48.85 -1.35,0.77 -2.49,1.41 -3.69,2.08 z M 234.73,72.14 c -2.86,-4.91 -5.52,-9.52 -8.29,-14.29 -2.79,4.87 -5.46,9.49 -8.22,14.29 z"
   id="path1-8"
   sodipodi:nodetypes="ccscccccccccccscccccccccccccccccccccccc"
   style="fill:#d4aa00" />
	<path
   d="m 256.68,175.95 c -10.16,10.14 -20.19,20.18 -30.11,30.08 -9.94,-9.95 -20,-20.02 -30.07,-30.08 19.89,0 39.98,0 60.18,0 z"
   id="path2-3"
   style="fill:#d4aa00" />
	<path
   d="m 148.35,127.92 c 8.19,-8.22 16.43,-16.49 24.62,-24.72 0,16.35 0,32.88 0,49.34 -8.3,-8.31 -16.55,-16.57 -24.62,-24.62 z"
   id="path3-0"
   style="fill:#d4aa00" />
	<path
   d="m 279.88,152.39 c 0,-16.37 0,-32.84 0,-49.06 8.13,8.19 16.38,16.48 24.5,24.65 -7.86,7.84 -16.16,16.11 -24.5,24.41 z"
   id="path4-6"
   style="fill:#d4aa00" />
</g><path
       d="m 132.45156,162.54883 h 1.75084 q 0.37164,0 0.59462,0.0165 0.23125,0.0165 0.48726,0.0743 0.26428,0.0578 0.4212,0.17343 0.16517,0.11562 0.28079,0.31383 0.10736,0.18995 0.10736,0.479 v 1.11492 q 0,0.66895 -0.52029,0.96627 -0.51204,0.28905 -1.5196,0.28905 h -0.80109 v 1.93253 h -0.80109 z m 1.70955,2.92356 q 0.52029,0 0.83412,-0.18995 0.31383,-0.18995 0.31383,-0.60288 v -0.97452 q 0,-0.22299 -0.11562,-0.36338 -0.11562,-0.14866 -0.33035,-0.20647 -0.20646,-0.0496 -0.34686,-0.0661 -0.1404,-0.0165 -0.37164,-0.0165 h -0.90019 v 2.41979 z m 4.64136,2.51889 q -0.52855,0 -0.79283,-0.0413 -0.26428,-0.033 -0.52855,-0.15692 -0.27254,-0.12388 -0.39642,-0.39641 -0.12388,-0.2808 -0.12388,-0.75154 v -1.38744 q 0,-0.37164 0.0908,-0.65244 0.0908,-0.28079 0.2395,-0.43771 0.12388,-0.14039 0.37164,-0.21472 0.25601,-0.0826 0.52029,-0.10737 0.29731,-0.0165 0.6194,-0.0165 0.42945,0 0.64418,0.0248 0.22298,0.0165 0.47074,0.0826 0.25602,0.0743 0.39642,0.22298 0.14039,0.14866 0.2395,0.42945 0.0908,0.28906 0.0908,0.66896 v 1.38745 q 0,0.70199 -0.32209,1.02407 -0.13213,0.13214 -0.37989,0.20647 -0.24776,0.0743 -0.51204,0.0991 -0.31383,0.0165 -0.62766,0.0165 z m 0,-0.48726 q 0.34687,0 0.50378,-0.0165 0.15691,-0.0165 0.30557,-0.0908 0.14866,-0.0661 0.20647,-0.21473 0.0661,-0.15691 0.0661,-0.42945 v -1.61869 q 0,-0.37164 -0.0908,-0.53682 -0.0908,-0.17343 -0.31383,-0.22298 -0.21472,-0.0578 -0.67721,-0.0578 -0.46248,0 -0.68547,0.0578 -0.21472,0.0495 -0.30557,0.22298 -0.0908,0.16518 -0.0908,0.53682 v 1.61869 q 0,0.27254 0.0578,0.42945 0.0661,0.14866 0.21472,0.21473 0.14866,0.0743 0.30557,0.0908 0.15692,0.0165 0.50378,0.0165 z m 4.22018,0.48726 q -0.63591,0 -1.37093,-0.0991 v -0.56985 q 0.96626,0.15692 1.38745,0.15692 0.52856,0 0.7598,-0.0991 0.23124,-0.10736 0.23124,-0.38816 v -0.40467 q 0,-0.25602 -0.17343,-0.36338 -0.17343,-0.10736 -0.56159,-0.10736 h -0.45423 q -0.6194,0 -0.94974,-0.25602 -0.32209,-0.25602 -0.32209,-0.71851 v -0.37164 q 0,-0.94148 1.78387,-0.94148 0.13214,0 1.21402,0.0661 v 0.53681 q -0.73502,-0.11562 -1.24705,-0.11562 -0.58637,0 -0.80109,0.11562 -0.21473,0.11562 -0.21473,0.38816 v 0.3386 q 0,0.40468 0.73502,0.40468 h 0.46249 q 1.26357,0 1.26357,0.94148 v 0.34687 q 0,0.6194 -0.42945,0.88367 -0.42945,0.25602 -1.31313,0.25602 z m 2.76665,-5.52504 h 0.74328 v 0.77631 h -0.74328 z m 0,1.44526 h 0.74328 v 3.9972 h -0.74328 z m 3.70814,4.07978 q -0.51203,0 -0.80109,-0.10736 -0.28905,-0.11562 -0.42119,-0.3799 -0.12388,-0.27253 -0.12388,-0.7598 v -2.34545 h -0.89193 v -0.48727 h 0.89193 v -1.23879 h 0.75154 v 1.23879 h 1.42875 v 0.48727 h -1.42875 v 2.38675 q 0,0.29731 0.0661,0.44597 0.0743,0.14865 0.24776,0.21472 0.18169,0.0578 0.52029,0.0578 0.10737,0 0.59463,-0.0661 v 0.48726 q -0.42119,0.0661 -0.83413,0.0661 z m 1.64348,-4.07978 h 0.70199 v 0.65244 q 0,-0.18995 0.16517,-0.35512 0.16517,-0.17344 0.42119,-0.27254 0.25602,-0.10736 0.50378,-0.10736 h 0.36338 v 0.63591 h -0.41293 q -0.52856,0 -0.76806,0.1404 -0.23124,0.13214 -0.23124,0.48726 v 2.81621 h -0.74328 z m 4.59182,4.07978 q -0.52856,0 -0.79284,-0.0413 -0.26427,-0.033 -0.52855,-0.15692 -0.27254,-0.12388 -0.39642,-0.39641 -0.12388,-0.2808 -0.12388,-0.75154 v -1.38744 q 0,-0.37164 0.0908,-0.65244 0.0908,-0.28079 0.2395,-0.43771 0.12388,-0.14039 0.37164,-0.21472 0.25602,-0.0826 0.5203,-0.10737 0.29731,-0.0165 0.6194,-0.0165 0.42945,0 0.64417,0.0248 0.22298,0.0165 0.47074,0.0826 0.25602,0.0743 0.39642,0.22298 0.1404,0.14866 0.2395,0.42945 0.0909,0.28906 0.0909,0.66896 v 1.38745 q 0,0.70199 -0.32209,1.02407 -0.13214,0.13214 -0.3799,0.20647 -0.24776,0.0743 -0.51204,0.0991 -0.31383,0.0165 -0.62765,0.0165 z m 0,-0.48726 q 0.34686,0 0.50377,-0.0165 0.15692,-0.0165 0.30557,-0.0908 0.14866,-0.0661 0.20647,-0.21473 0.0661,-0.15691 0.0661,-0.42945 v -1.61869 q 0,-0.37164 -0.0908,-0.53682 -0.0908,-0.17343 -0.31382,-0.22298 -0.21473,-0.0578 -0.67721,-0.0578 -0.46249,0 -0.68547,0.0578 -0.21473,0.0495 -0.30557,0.22298 -0.0908,0.16518 -0.0908,0.53682 v 1.61869 q 0,0.27254 0.0578,0.42945 0.0661,0.14866 0.21473,0.21473 0.14865,0.0743 0.30557,0.0908 0.15691,0.0165 0.50378,0.0165 z m 2.9979,-3.59252 h 0.74327 v 0.48727 q 0.11563,-0.56985 1.31313,-0.56985 0.76806,0 1.07363,0.28079 0.31383,0.27254 0.31383,0.86716 v 2.93183 h -0.74328 v -2.89054 q 0,-0.15691 -0.0248,-0.25601 -0.0248,-0.0991 -0.0991,-0.19821 -0.16518,-0.20647 -0.73502,-0.20647 -0.43771,0 -0.67721,0.0661 -0.23125,0.0578 -0.33035,0.19821 -0.0909,0.1404 -0.0909,0.39641 v 2.89054 h -0.74327 z m 6.1114,-1.36267 h 0.83412 l 1.71781,4.60007 h 0.0743 l 1.71781,-4.60007 h 0.79283 l -2.13074,5.35987 h -0.92497 z m 7.45758,5.44245 q -0.69373,0 -1.56089,-0.15691 v -0.59463 q 0.98278,0.20647 1.64347,0.20647 1.0984,0 1.0984,-0.6194 v -0.91671 q 0,-0.33861 -0.36338,-0.44597 -0.17343,-0.0413 -0.31383,-0.0495 -0.13214,-0.0165 -0.34686,-0.0165 h -1.03233 v -0.51203 h 0.89193 q 0.21473,0 0.34687,-0.008 0.13213,-0.0165 0.30557,-0.0661 0.18169,-0.0413 0.28079,-0.15692 0.0991,-0.11562 0.0991,-0.29731 v -0.958 q 0,-0.42119 -0.99103,-0.42119 -0.6607,0 -1.51134,0.13213 v -0.56984 q 0.71025,-0.0743 1.50308,-0.0743 0.91671,0 1.32964,0.20647 0.42119,0.1982 0.42119,0.68546 v 1.03234 q 0,0.25601 -0.20646,0.42945 -0.20647,0.16517 -0.52856,0.21472 v 0.033 q 0.19821,0.033 0.32209,0.0743 0.13214,0.033 0.28079,0.10737 0.28906,0.14865 0.28906,0.52029 v 1.07363 q 0,0.28079 -0.12388,0.50378 -0.12388,0.22298 -0.31383,0.34686 -0.16517,0.11562 -0.43771,0.18995 -0.27254,0.0661 -0.53681,0.0908 -0.31383,0.0165 -0.54507,0.0165 z"
       id="text84"
       style="font-size:8.25866px;font-family:Play;-inkscape-font-specification:'Play, Normal';display:none;fill:#b3b3b3;stroke-width:0.412932"
       aria-label="Positron V3" /><path
       d="m 132.95779,171.6334 -1.25455,0.82151 v -0.5222 l 1.26092,-0.87246 h 0.54768 v 4.13304 h -0.55405 z m 3.50257,3.62357 q -0.77693,0 -1.12082,-0.18468 -0.34389,-0.19105 -0.34389,-0.62409 v -0.77057 q 0,-0.24836 0.19105,-0.41394 0.19742,-0.17194 0.5222,-0.24836 v -0.0255 q -0.28657,-0.0637 -0.43304,-0.20378 -0.14011,-0.14011 -0.14011,-0.38847 v -0.6432 q 0,-0.17831 0.0573,-0.30568 0.0573,-0.12737 0.19105,-0.24199 0.27384,-0.21653 1.07624,-0.21653 0.80241,0 1.07625,0.21653 0.13373,0.11462 0.19105,0.24199 0.0573,0.12737 0.0573,0.30568 v 0.6432 q 0,0.24836 -0.1401,0.38847 -0.1401,0.1401 -0.42668,0.20378 v 0.0255 q 0.32479,0.0764 0.51583,0.24836 0.19742,0.16558 0.19742,0.41394 v 0.75783 q 0,0.44578 -0.34389,0.63683 -0.33752,0.18468 -1.12719,0.18468 z m 0,-2.38175 q 0.42031,0 0.57952,-0.0891 0.16557,-0.0892 0.16557,-0.33116 v -0.66867 q 0,-0.23563 -0.17194,-0.33115 -0.17194,-0.0955 -0.57315,-0.0955 -0.4012,0 -0.57315,0.0955 -0.17194,0.0955 -0.17194,0.33115 v 0.66867 q 0,0.242 0.15921,0.33116 0.16557,0.0891 0.58588,0.0891 z m 0,2.01239 q 0.46489,0 0.65594,-0.0955 0.19105,-0.0955 0.19105,-0.32478 v -0.77057 q 0,-0.32478 -0.27384,-0.40757 -0.13373,-0.0382 -0.24836,-0.0446 -0.11463,-0.0127 -0.32479,-0.0127 -0.21015,0 -0.31841,0.0127 -0.10826,0.006 -0.24837,0.0446 -0.2802,0.0828 -0.2802,0.40757 v 0.77057 q 0,0.22926 0.19105,0.32478 0.19105,0.0955 0.65593,0.0955 z m 3.69362,0.36936 q -0.2802,0 -0.45852,-0.0191 -0.17194,-0.0191 -0.36936,-0.0764 -0.21015,-0.0573 -0.33752,-0.16558 -0.121,-0.11463 -0.20378,-0.31842 -0.0828,-0.19104 -0.0828,-0.47762 v -2.0888 q 0,-0.28658 0.0828,-0.5031 0.0828,-0.21652 0.21652,-0.34389 0.121,-0.10826 0.31841,-0.17194 0.20379,-0.0701 0.40757,-0.0892 0.22926,-0.0127 0.42668,-0.0127 0.28021,0 0.45215,0.0191 0.17831,0.0191 0.37573,0.0764 0.21016,0.0637 0.33752,0.17831 0.13374,0.11463 0.21652,0.32478 0.0828,0.21016 0.0828,0.51584 v 2.09517 q 0,0.2611 -0.0828,0.46489 -0.0828,0.20378 -0.21652,0.31841 -0.12736,0.10826 -0.32478,0.17832 -0.19742,0.0637 -0.4012,0.0764 -0.17832,0.0191 -0.43942,0.0191 z m 0.0127,-0.37573 q 0.33752,0 0.5222,-0.0446 0.18468,-0.0509 0.26747,-0.19105 0.0828,-0.1401 0.0828,-0.41394 v -2.16522 q 0,-0.29931 -0.0892,-0.44578 -0.0828,-0.15284 -0.26747,-0.20379 -0.17831,-0.051 -0.5222,-0.051 -0.35026,0 -0.53494,0.051 -0.17831,0.051 -0.2611,0.20379 -0.0828,0.14647 -0.0828,0.44578 v 2.16524 q 0,0.27384 0.0828,0.41394 0.0892,0.14011 0.27384,0.19105 0.18468,0.0446 0.52857,0.0446 z m 3.05042,-1.27366 -1.08261,-1.49655 h 0.63046 l 0.7642,1.12719 0.77056,-1.12719 h 0.63046 l -1.08261,1.49655 1.1463,1.58571 h -0.63047 l -0.83424,-1.21635 -0.82788,1.21635 h -0.63047 z m 3.87193,-1.97418 -1.25456,0.82151 v -0.5222 l 1.26093,-0.87246 h 0.54767 v 4.13304 h -0.55404 z m 3.50257,3.62357 q -0.77693,0 -1.12082,-0.18468 -0.34389,-0.19105 -0.34389,-0.62409 v -0.77057 q 0,-0.24836 0.19105,-0.41394 0.19742,-0.17194 0.5222,-0.24836 v -0.0255 q -0.28657,-0.0637 -0.43304,-0.20378 -0.14011,-0.14011 -0.14011,-0.38847 v -0.6432 q 0,-0.17831 0.0573,-0.30568 0.0573,-0.12737 0.19105,-0.24199 0.27383,-0.21653 1.07624,-0.21653 0.80241,0 1.07625,0.21653 0.13373,0.11462 0.19104,0.24199 0.0573,0.12737 0.0573,0.30568 v 0.6432 q 0,0.24836 -0.1401,0.38847 -0.14011,0.1401 -0.42668,0.20378 v 0.0255 q 0.32478,0.0764 0.51583,0.24836 0.19742,0.16558 0.19742,0.41394 v 0.75783 q 0,0.44578 -0.34389,0.63683 -0.33752,0.18468 -1.12719,0.18468 z m 0,-2.38175 q 0.42031,0 0.57952,-0.0891 0.16557,-0.0892 0.16557,-0.33116 v -0.66867 q 0,-0.23563 -0.17194,-0.33115 -0.17195,-0.0955 -0.57315,-0.0955 -0.4012,0 -0.57315,0.0955 -0.17194,0.0955 -0.17194,0.33115 v 0.66867 q 0,0.242 0.15921,0.33116 0.16557,0.0891 0.58588,0.0891 z m 0,2.01239 q 0.46489,0 0.65594,-0.0955 0.19105,-0.0955 0.19105,-0.32478 v -0.77057 q 0,-0.32478 -0.27384,-0.40757 -0.13374,-0.0382 -0.24837,-0.0446 -0.11462,-0.0127 -0.32478,-0.0127 -0.21015,0 -0.31841,0.0127 -0.10827,0.006 -0.24837,0.0446 -0.2802,0.0828 -0.2802,0.40757 v 0.77057 q 0,0.22926 0.19104,0.32478 0.19105,0.0955 0.65594,0.0955 z m 3.69362,0.36936 q -0.28021,0 -0.45852,-0.0191 -0.17194,-0.0191 -0.36936,-0.0764 -0.21015,-0.0573 -0.33752,-0.16558 -0.121,-0.11463 -0.20379,-0.31842 -0.0828,-0.19104 -0.0828,-0.47762 v -2.0888 q 0,-0.28658 0.0828,-0.5031 0.0828,-0.21652 0.21653,-0.34389 0.12099,-0.10826 0.31841,-0.17194 0.20379,-0.0701 0.40757,-0.0892 0.22926,-0.0127 0.42668,-0.0127 0.28021,0 0.45215,0.0191 0.17831,0.0191 0.37573,0.0764 0.21015,0.0637 0.33752,0.17831 0.13373,0.11463 0.21652,0.32478 0.0828,0.21016 0.0828,0.51584 v 2.09517 q 0,0.2611 -0.0828,0.46489 -0.0828,0.20378 -0.21652,0.31841 -0.12737,0.10826 -0.32478,0.17832 -0.19742,0.0637 -0.40121,0.0764 -0.17831,0.0191 -0.43941,0.0191 z m 0.0127,-0.37573 q 0.33752,0 0.5222,-0.0446 0.18468,-0.0509 0.26747,-0.19105 0.0828,-0.1401 0.0828,-0.41394 v -2.16522 q 0,-0.29931 -0.0891,-0.44578 -0.0828,-0.15284 -0.26747,-0.20379 -0.17831,-0.051 -0.5222,-0.051 -0.35026,0 -0.53494,0.051 -0.17831,0.051 -0.2611,0.20379 -0.0828,0.14647 -0.0828,0.44578 v 2.16524 q 0,0.27384 0.0828,0.41394 0.0892,0.14011 0.27384,0.19105 0.18468,0.0446 0.52857,0.0446 z m 2.33717,-2.77021 h 0.57314 v 0.37573 q 0.0892,-0.43942 1.03804,-0.43942 0.77056,0 0.96161,0.42031 0.0573,-0.20379 0.34389,-0.31205 0.29295,-0.10826 0.71325,-0.10826 0.57315,0 0.80878,0.21652 0.23563,0.21016 0.23563,0.66868 v 2.26075 h -0.57315 v -2.22254 q 0,-0.121 -0.0191,-0.19742 -0.0191,-0.0764 -0.0764,-0.15284 -0.12736,-0.15921 -0.56678,-0.15921 -0.33752,0 -0.50309,0.0446 -0.16558,0.0446 -0.22926,0.15284 -0.0573,0.10826 -0.0573,0.31205 v 2.22254 h -0.57314 v -2.22254 q 0,-0.121 -0.0191,-0.19742 -0.0191,-0.0764 -0.0764,-0.15284 -0.12736,-0.15921 -0.56041,-0.15921 -0.35026,0 -0.52857,0.0446 -0.17831,0.0446 -0.24836,0.15284 -0.0701,0.10189 -0.0701,0.31205 v 2.22254 h -0.57314 z m 5.66779,0 h 0.57315 v 0.37573 q 0.0892,-0.43942 1.03803,-0.43942 0.77057,0 0.96162,0.42031 0.0573,-0.20379 0.34388,-0.31205 0.29295,-0.10826 0.71326,-0.10826 0.57314,0 0.80877,0.21652 0.23563,0.21016 0.23563,0.66868 v 2.26075 h -0.57315 v -2.22254 q 0,-0.121 -0.0191,-0.19742 -0.0191,-0.0764 -0.0764,-0.15284 -0.12737,-0.15921 -0.56678,-0.15921 -0.33752,0 -0.5031,0.0446 -0.16558,0.0446 -0.22926,0.15284 -0.0573,0.10826 -0.0573,0.31205 v 2.22254 h -0.57315 v -2.22254 q 0,-0.121 -0.0191,-0.19742 -0.0191,-0.0764 -0.0764,-0.15284 -0.12736,-0.15921 -0.56041,-0.15921 -0.35026,0 -0.52857,0.0446 -0.17831,0.0446 -0.24836,0.15284 -0.0701,0.10189 -0.0701,0.31205 v 2.22254 h -0.57315 z"
       id="text1"
       style="font-size:6.36831px;font-family:Play;-inkscape-font-specification:'Play, Normal';display:none;fill:#b2b2b2;fill-opacity:1;stroke-width:0.174762"
       aria-label="180x180mm" /><text
       xml:space="preserve"
       style="font-size:7.05556px;fill:#b2b2b2;fill-opacity:1;stroke-width:0.264583"
       x="126.98309"
       y="168.56219"
       id="text2"><tspan
         sodipodi:role="line"
         id="tspan1"
         style="font-style:normal;font-variant:normal;font-weight:normal;font-stretch:normal;font-size:7.05556px;font-family:PROXON;-inkscape-font-specification:PROXON;fill:#b2b2b2;fill-opacity:1;stroke-width:0.264583"
         x="126.98309"
         y="168.56219">Positron V3.2</tspan></text><text
       xml:space="preserve"
       style="font-style:normal;font-variant:normal;font-weight:normal;font-stretch:normal;font-size:4.23333px;font-family:PROXON;-inkscape-font-specification:PROXON;fill:#b2b2b2;fill-opacity:1;stroke-width:0.264583"
       x="131.27547"
       y="172.82301"
       id="text3"><tspan
         sodipodi:role="line"
         id="tspan2"
         style="font-size:4.23333px;stroke-width:0.264583"
         x="131.27547"
         y="172.82301">180x180x165mm</tspan></text></g></svg>
